<svg width="493" height="45" viewBox="0 0 493 45" fill="none" xmlns="http://www.w3.org/2000/svg">
    <path
        d="M44.3304 19.6V23.2C44.3304 36.04 35.3904 43.84 23.6304 43.84C10.4304 43.84 0.950391 34.12 0.950391 22.06C0.950391 9.88 10.6104 0.159997 22.9704 0.159997C31.0104 0.159997 37.7904 4.12 41.3304 9.76L33.1704 14.44C31.4304 11.68 27.6504 9.52 22.9104 9.52C15.8304 9.52 10.5504 14.74 10.5504 22.12C10.5504 29.26 15.5904 34.48 23.7504 34.48C29.3304 34.48 32.9904 32.02 34.4904 28H23.2704V19.6H44.3304ZM57.4826 31.6C58.6226 34.72 61.3826 35.8 64.6826 35.8C67.1426 35.8 69.2426 34.84 70.4426 33.52L77.6426 37.66C74.7026 41.74 70.2626 43.84 64.5626 43.84C54.3026 43.84 47.9426 36.94 47.9426 28C47.9426 19.06 54.4226 12.16 63.9026 12.16C72.6626 12.16 79.1426 18.94 79.1426 28C79.1426 29.26 79.0226 30.46 78.7826 31.6H57.4826ZM57.3026 24.88H70.2026C69.2426 21.4 66.5426 20.14 63.8426 20.14C60.4226 20.14 58.1426 21.82 57.3026 24.88ZM100.948 21.64H94.7684V32.26C94.7684 34.84 96.9884 35.08 100.948 34.84V43C89.1884 44.2 85.7684 40.66 85.7684 32.26V21.64H80.9684V13H85.7684V7.3L94.7684 4.6V13H100.948V21.64ZM139.21 21.64H133.03V32.26C133.03 34.84 135.25 35.08 139.21 34.84V43C127.45 44.2 124.03 40.66 124.03 32.26V21.64H119.23V13H124.03V7.3L133.03 4.6V13H139.21V21.64ZM158.12 43.84C149.3 43.84 142.22 36.94 142.22 28C142.22 19.06 149.3 12.16 158.12 12.16C166.94 12.16 174.02 19.06 174.02 28C174.02 36.94 166.94 43.84 158.12 43.84ZM158.12 35.08C162.02 35.08 165.02 32.26 165.02 28C165.02 23.74 162.02 20.92 158.12 20.92C154.22 20.92 151.22 23.74 151.22 28C151.22 32.26 154.22 35.08 158.12 35.08ZM222.911 43H212.711L203.111 29.74V43H194.111V0.999997H203.111V26.14L212.111 13H222.611L211.691 28L222.911 43ZM243.8 12.16C249.86 12.16 255.02 16.48 255.02 24.58V43H246.02V25.9C246.02 22.18 243.68 20.44 240.8 20.44C237.5 20.44 235.22 22.36 235.22 26.62V43H226.22V13H235.22V15.82C236.84 13.6 239.84 12.16 243.8 12.16ZM275.6 43.84C266.78 43.84 259.7 36.94 259.7 28C259.7 19.06 266.78 12.16 275.6 12.16C284.42 12.16 291.5 19.06 291.5 28C291.5 36.94 284.42 43.84 275.6 43.84ZM275.6 35.08C279.5 35.08 282.5 32.26 282.5 28C282.5 23.74 279.5 20.92 275.6 20.92C271.7 20.92 268.7 23.74 268.7 28C268.7 32.26 271.7 35.08 275.6 35.08ZM328.419 13H338.019L328.419 43H320.019L315.219 26.98L310.419 43H302.019L292.419 13H302.019L306.339 29.08L311.019 13H319.419L324.099 29.08L328.419 13ZM376.931 43.84C364.871 43.84 355.091 34.36 355.091 22C355.091 9.64 364.871 0.159997 376.931 0.159997C388.991 0.159997 398.771 9.64 398.771 22C398.771 34.36 388.991 43.84 376.931 43.84ZM376.931 34.48C383.771 34.48 389.171 29.5 389.171 22C389.171 14.5 383.771 9.52 376.931 9.52C370.091 9.52 364.691 14.5 364.691 22C364.691 29.5 370.091 34.48 376.931 34.48ZM424.216 43.84C412.156 43.84 402.376 34.36 402.376 22C402.376 9.64 412.156 0.159997 424.216 0.159997C436.276 0.159997 446.056 9.64 446.056 22C446.056 34.36 436.276 43.84 424.216 43.84ZM424.216 34.48C431.056 34.48 436.456 29.5 436.456 22C436.456 14.5 431.056 9.52 424.216 9.52C417.376 9.52 411.976 14.5 411.976 22C411.976 29.5 417.376 34.48 424.216 34.48ZM476.961 10.24H461.061V18.34H476.661V27.58H461.061V43H451.461V0.999997H476.961V10.24ZM482.633 0.999997H492.233V43H482.633V0.999997Z"
        fill="#582889" />
</svg>
    