<svg width="120" height="120" viewBox="0 0 120 120" fill="none" xmlns="http://www.w3.org/2000/svg">
    <path
        d="M90.3352 20.4H90.1603L89.9959 20.4593L71.6959 27.0593L70.8178 27.376L71.0734 28.2738L74.9734 41.9738L75.2445 42.9263L76.1996 42.6644L87.3352 39.6111V91.4V92.4H88.3352H104.335H105.335V91.4V21.4V20.4H104.335H90.3352Z"
        stroke="#642D83" stroke-width="2" />
    <path
        d="M12 56.4C12 67.3463 14.6337 76.6811 19.6662 83.305C24.7222 89.9596 32.1448 93.8 41.5 93.8C50.8552 93.8 58.2778 89.9596 63.3338 83.305C68.3663 76.6811 71 67.3463 71 56.4C71 45.4537 68.3663 36.1189 63.3338 29.495C58.2778 22.8404 50.8552 19 41.5 19C32.1448 19 24.7222 22.8404 19.6662 29.495C14.6337 36.1189 12 45.4537 12 56.4ZM53 56.4C53 63.0797 51.9803 68.0678 50.039 71.3539C48.1432 74.563 45.345 76.2 41.5 76.2C37.655 76.2 34.8568 74.563 32.961 71.3539C31.0197 68.0678 30 63.0797 30 56.4C30 49.7203 31.0197 44.7322 32.961 41.4461C34.8568 38.237 37.655 36.6 41.5 36.6C45.345 36.6 48.1432 38.237 50.039 41.4461C51.9803 44.7322 53 49.7203 53 56.4Z"
        stroke="#642D83" stroke-width="2" />
</svg>
    