<svg width="416" height="57" viewBox="0 0 416 57" fill="none" xmlns="http://www.w3.org/2000/svg">
    <path
        d="M42.1039 2.04028V44.0403H32.5039V19.6203L21.6439 37.4403H20.5639L9.70391 19.6203V44.0403H0.103906V2.04028H9.70391L21.1039 20.7003L32.5039 2.04028H42.1039ZM70.8027 14.0403H79.8027V44.0403H70.8027V41.2203C68.8227 43.5003 65.8827 44.8803 61.8627 44.8803C54.0027 44.8803 47.5227 37.9803 47.5227 29.0403C47.5227 20.1003 54.0027 13.2003 61.8627 13.2003C65.8827 13.2003 68.8227 14.5803 70.8027 16.8603V14.0403ZM63.6627 36.3603C67.8027 36.3603 70.8027 33.5403 70.8027 29.0403C70.8027 24.5403 67.8027 21.7203 63.6627 21.7203C59.5227 21.7203 56.5227 24.5403 56.5227 29.0403C56.5227 33.5403 59.5227 36.3603 63.6627 36.3603ZM95.4055 19.3803C96.6055 15.3603 100.625 13.4403 104.405 13.4403V23.6403C100.685 23.0403 95.4055 24.5403 95.4055 30.4803V44.0403H86.4055V14.0403H95.4055V19.3803ZM137.413 44.0403H127.213L117.613 30.7803V44.0403H108.613V2.04028H117.613V27.1803L126.613 14.0403H137.113L126.193 29.0403L137.413 44.0403ZM146.945 32.6403C148.085 35.7603 150.845 36.8403 154.145 36.8403C156.605 36.8403 158.705 35.8803 159.905 34.5603L167.105 38.7003C164.165 42.7803 159.725 44.8803 154.025 44.8803C143.765 44.8803 137.405 37.9803 137.405 29.0403C137.405 20.1003 143.885 13.2003 153.365 13.2003C162.125 13.2003 168.605 19.9803 168.605 29.0403C168.605 30.3003 168.485 31.5003 168.245 32.6403H146.945ZM146.765 25.9203H159.665C158.705 22.4403 156.005 21.1803 153.305 21.1803C149.885 21.1803 147.605 22.8603 146.765 25.9203ZM190.411 22.6803H184.231V33.3003C184.231 35.8803 186.451 36.1203 190.411 35.8803V44.0403C178.651 45.2403 175.231 41.7003 175.231 33.3003V22.6803H170.431V14.0403H175.231V8.34028L184.231 5.64028V14.0403H190.411V22.6803ZM200.007 11.4003C197.067 11.4003 194.607 8.94028 194.607 6.00028C194.607 3.06028 197.067 0.600281 200.007 0.600281C202.947 0.600281 205.407 3.06028 205.407 6.00028C205.407 8.94028 202.947 11.4003 200.007 11.4003ZM195.507 44.0403V14.0403H204.507V44.0403H195.507ZM228.673 13.2003C234.733 13.2003 239.893 17.5203 239.893 25.6203V44.0403H230.893V26.9403C230.893 23.2203 228.553 21.4803 225.673 21.4803C222.373 21.4803 220.093 23.4003 220.093 27.6603V44.0403H211.093V14.0403H220.093V16.8603C221.713 14.6403 224.713 13.2003 228.673 13.2003ZM268.093 14.0403H276.853V42.5403C276.853 52.6203 268.993 56.8803 261.013 56.8803C254.773 56.8803 249.553 54.5403 246.793 49.6203L254.473 45.1803C255.613 47.2803 257.353 48.9603 261.313 48.9603C265.513 48.9603 268.093 46.8003 268.093 42.5403V39.7803C266.113 42.2403 263.233 43.6803 259.333 43.6803C250.813 43.6803 244.573 36.7203 244.573 28.4403C244.573 20.1603 250.813 13.2003 259.333 13.2003C263.233 13.2003 266.113 14.6403 268.093 17.1003V14.0403ZM260.833 35.4003C265.093 35.4003 268.093 32.5803 268.093 28.4403C268.093 24.3003 265.093 21.4803 260.833 21.4803C256.573 21.4803 253.573 24.3003 253.573 28.4403C253.573 32.5803 256.573 35.4003 260.833 35.4003ZM314.656 2.04028C322.936 2.04028 329.356 8.46028 329.356 16.4403C329.356 24.4203 322.936 30.8403 314.656 30.8403H308.356V44.0403H298.756V2.04028H314.656ZM314.656 21.8403C317.596 21.8403 319.756 19.5003 319.756 16.4403C319.756 13.3803 317.596 11.0403 314.656 11.0403H308.356V21.8403H314.656ZM333.847 44.0403V0.240282H342.847V44.0403H333.847ZM371.213 14.0403H380.213V44.0403H371.213V41.2203C369.233 43.5003 366.293 44.8803 362.273 44.8803C354.413 44.8803 347.933 37.9803 347.933 29.0403C347.933 20.1003 354.413 13.2003 362.273 13.2003C366.293 13.2003 369.233 14.5803 371.213 16.8603V14.0403ZM364.073 36.3603C368.213 36.3603 371.213 33.5403 371.213 29.0403C371.213 24.5403 368.213 21.7203 364.073 21.7203C359.933 21.7203 356.933 24.5403 356.933 29.0403C356.933 33.5403 359.933 36.3603 364.073 36.3603ZM404.396 13.2003C410.456 13.2003 415.616 17.5203 415.616 25.6203V44.0403H406.616V26.9403C406.616 23.2203 404.276 21.4803 401.396 21.4803C398.096 21.4803 395.816 23.4003 395.816 27.6603V44.0403H386.816V14.0403H395.816V16.8603C397.436 14.6403 400.436 13.2003 404.396 13.2003Z"
        fill="#582889" />
</svg>
    