<svg width="1107" height="56" viewBox="0 0 1107 56" fill="none" xmlns="http://www.w3.org/2000/svg">
    <path
        d="M25.6332 11.24H9.7332V19.34H25.3332V28.58H9.7332V44H0.133203V2H25.6332V11.24ZM35.5051 11.36C32.5651 11.36 30.1051 8.9 30.1051 5.96C30.1051 3.02 32.5651 0.559998 35.5051 0.559998C38.4451 0.559998 40.9051 3.02 40.9051 5.96C40.9051 8.9 38.4451 11.36 35.5051 11.36ZM31.0051 44V14H40.0051V44H31.0051ZM55.591 19.34C56.791 15.32 60.811 13.4 64.591 13.4V23.6C60.871 23 55.591 24.5 55.591 30.44V44H46.591V14H55.591V19.34ZM76.4391 22.76C76.4391 26.18 91.1991 23.9 91.1991 35C91.1991 41.9 85.1991 44.84 78.7191 44.84C72.7191 44.84 68.1591 42.56 65.8191 37.7L73.6191 33.26C74.3991 35.54 76.0791 36.8 78.7191 36.8C80.8791 36.8 81.9591 36.14 81.9591 34.94C81.9591 31.64 67.1991 33.38 67.1991 23C67.1991 16.46 72.7191 13.16 78.9591 13.16C83.8191 13.16 88.1391 15.32 90.6591 19.58L82.9791 23.72C82.1391 22.16 80.9391 21.08 78.9591 21.08C77.3991 21.08 76.4391 21.68 76.4391 22.76ZM112.394 22.64H106.214V33.26C106.214 35.84 108.434 36.08 112.394 35.84V44C100.634 45.2 97.2137 41.66 97.2137 33.26V22.64H92.4137V14H97.2137V8.3L106.214 5.6V14H112.394V22.64ZM117.789 30.38V21.74H140.589V30.38H117.789ZM189.369 20.6V24.2C189.369 37.04 180.429 44.84 168.669 44.84C155.469 44.84 145.989 35.12 145.989 23.06C145.989 10.88 155.649 1.16 168.009 1.16C176.049 1.16 182.829 5.12 186.369 10.76L178.209 15.44C176.469 12.68 172.689 10.52 167.949 10.52C160.869 10.52 155.589 15.74 155.589 23.12C155.589 30.26 160.629 35.48 168.789 35.48C174.369 35.48 178.029 33.02 179.529 29H168.309V20.6H189.369ZM202.522 32.6C203.662 35.72 206.422 36.8 209.722 36.8C212.182 36.8 214.282 35.84 215.482 34.52L222.682 38.66C219.742 42.74 215.302 44.84 209.602 44.84C199.342 44.84 192.982 37.94 192.982 29C192.982 20.06 199.462 13.16 208.942 13.16C217.702 13.16 224.182 19.94 224.182 29C224.182 30.26 224.062 31.46 223.822 32.6H202.522ZM202.342 25.88H215.242C214.282 22.4 211.582 21.14 208.882 21.14C205.462 21.14 203.182 22.82 202.342 25.88ZM246.866 13.16C252.926 13.16 258.086 17.48 258.086 25.58V44H249.086V26.9C249.086 23.18 246.746 21.44 243.866 21.44C240.566 21.44 238.286 23.36 238.286 27.62V44H229.286V14H238.286V16.82C239.906 14.6 242.906 13.16 246.866 13.16ZM272.307 32.6C273.447 35.72 276.207 36.8 279.507 36.8C281.967 36.8 284.067 35.84 285.267 34.52L292.467 38.66C289.527 42.74 285.087 44.84 279.387 44.84C269.127 44.84 262.767 37.94 262.767 29C262.767 20.06 269.247 13.16 278.727 13.16C287.487 13.16 293.967 19.94 293.967 29C293.967 30.26 293.847 31.46 293.607 32.6H272.307ZM272.127 25.88H285.027C284.067 22.4 281.367 21.14 278.667 21.14C275.247 21.14 272.967 22.82 272.127 25.88ZM308.071 19.34C309.271 15.32 313.291 13.4 317.071 13.4V23.6C313.351 23 308.071 24.5 308.071 30.44V44H299.071V14H308.071V19.34ZM342.18 14H351.18V44H342.18V41.18C340.2 43.46 337.26 44.84 333.24 44.84C325.38 44.84 318.9 37.94 318.9 29C318.9 20.06 325.38 13.16 333.24 13.16C337.26 13.16 340.2 14.54 342.18 16.82V14ZM335.04 36.32C339.18 36.32 342.18 33.5 342.18 29C342.18 24.5 339.18 21.68 335.04 21.68C330.9 21.68 327.9 24.5 327.9 29C327.9 33.5 330.9 36.32 335.04 36.32ZM375.362 22.64H369.182V33.26C369.182 35.84 371.402 36.08 375.362 35.84V44C363.602 45.2 360.182 41.66 360.182 33.26V22.64H355.382V14H360.182V8.3L369.182 5.6V14H375.362V22.64ZM384.958 11.36C382.018 11.36 379.558 8.9 379.558 5.96C379.558 3.02 382.018 0.559998 384.958 0.559998C387.898 0.559998 390.358 3.02 390.358 5.96C390.358 8.9 387.898 11.36 384.958 11.36ZM380.458 44V14H389.458V44H380.458ZM410.444 44.84C401.624 44.84 394.544 37.94 394.544 29C394.544 20.06 401.624 13.16 410.444 13.16C419.264 13.16 426.344 20.06 426.344 29C426.344 37.94 419.264 44.84 410.444 44.84ZM410.444 36.08C414.344 36.08 417.344 33.26 417.344 29C417.344 24.74 414.344 21.92 410.444 21.92C406.544 21.92 403.544 24.74 403.544 29C403.544 33.26 406.544 36.08 410.444 36.08ZM449.015 13.16C455.075 13.16 460.235 17.48 460.235 25.58V44H451.235V26.9C451.235 23.18 448.895 21.44 446.015 21.44C442.715 21.44 440.435 23.36 440.435 27.62V44H431.435V14H440.435V16.82C442.055 14.6 445.055 13.16 449.015 13.16ZM501.755 44.84C489.695 44.84 479.915 35.36 479.915 23C479.915 10.64 489.695 1.16 501.755 1.16C513.815 1.16 523.595 10.64 523.595 23C523.595 35.36 513.815 44.84 501.755 44.84ZM501.755 35.48C508.595 35.48 513.995 30.5 513.995 23C513.995 15.5 508.595 10.52 501.755 10.52C494.915 10.52 489.515 15.5 489.515 23C489.515 30.5 494.915 35.48 501.755 35.48ZM549.04 44.84C536.98 44.84 527.2 35.36 527.2 23C527.2 10.64 536.98 1.16 549.04 1.16C561.1 1.16 570.88 10.64 570.88 23C570.88 35.36 561.1 44.84 549.04 44.84ZM549.04 35.48C555.88 35.48 561.28 30.5 561.28 23C561.28 15.5 555.88 10.52 549.04 10.52C542.2 10.52 536.8 15.5 536.8 23C536.8 30.5 542.2 35.48 549.04 35.48ZM601.786 11.24H585.886V19.34H601.486V28.58H585.886V44H576.286V2H601.786V11.24ZM607.457 2H617.057V44H607.457V2ZM655.174 2C663.454 2 669.874 8.42 669.874 16.4C669.874 24.38 663.454 30.8 655.174 30.8H648.874V44H639.274V2H655.174ZM655.174 21.8C658.114 21.8 660.274 19.46 660.274 16.4C660.274 13.34 658.114 11 655.174 11H648.874V21.8H655.174ZM682.779 19.34C683.979 15.32 687.999 13.4 691.779 13.4V23.6C688.059 23 682.779 24.5 682.779 30.44V44H673.779V14H682.779V19.34ZM709.507 44.84C700.687 44.84 693.607 37.94 693.607 29C693.607 20.06 700.687 13.16 709.507 13.16C718.327 13.16 725.407 20.06 725.407 29C725.407 37.94 718.327 44.84 709.507 44.84ZM709.507 36.08C713.407 36.08 716.407 33.26 716.407 29C716.407 24.74 713.407 21.92 709.507 21.92C705.607 21.92 702.607 24.74 702.607 29C702.607 33.26 705.607 36.08 709.507 36.08ZM752.277 2H761.277V44H752.277V41.18C750.297 43.46 747.357 44.84 743.337 44.84C735.477 44.84 728.997 37.94 728.997 29C728.997 20.06 735.477 13.16 743.337 13.16C747.357 13.16 750.297 14.54 752.277 16.82V2ZM745.137 36.32C749.277 36.32 752.277 33.5 752.277 29C752.277 24.5 749.277 21.68 745.137 21.68C740.997 21.68 737.997 24.5 737.997 29C737.997 33.5 740.997 36.32 745.137 36.32ZM787.26 14H796.26V44H787.26V41.18C785.64 43.4 782.64 44.84 778.68 44.84C772.62 44.84 767.46 40.52 767.46 32.42V14H776.46V31.1C776.46 34.82 778.8 36.56 781.68 36.56C784.98 36.56 787.26 34.64 787.26 30.38V14ZM817.261 44.84C808.141 44.84 801.361 37.94 801.361 29C801.361 20.06 808.141 13.16 817.261 13.16C823.081 13.16 828.241 16.22 830.821 20.84L822.961 25.4C821.941 23.3 819.781 22.04 817.141 22.04C813.241 22.04 810.361 24.86 810.361 29C810.361 33.14 813.241 35.96 817.141 35.96C819.781 35.96 822.001 34.7 822.961 32.6L830.821 37.1C828.241 41.78 823.141 44.84 817.261 44.84ZM852.023 22.64H845.843V33.26C845.843 35.84 848.063 36.08 852.023 35.84V44C840.263 45.2 836.843 41.66 836.843 33.26V22.64H832.043V14H836.843V8.3L845.843 5.6V14H852.023V22.64ZM893.044 44.84C880.384 44.84 871.204 35.36 871.204 23C871.204 10.64 880.384 1.16 893.044 1.16C900.664 1.16 907.384 4.94 911.044 10.88L902.764 15.68C900.904 12.44 897.304 10.52 893.044 10.52C885.604 10.52 880.804 15.5 880.804 23C880.804 30.5 885.604 35.48 893.044 35.48C897.304 35.48 900.964 33.56 902.764 30.32L911.044 35.12C907.444 41.06 900.724 44.84 893.044 44.84ZM929.936 44.84C921.116 44.84 914.036 37.94 914.036 29C914.036 20.06 921.116 13.16 929.936 13.16C938.756 13.16 945.836 20.06 945.836 29C945.836 37.94 938.756 44.84 929.936 44.84ZM929.936 36.08C933.836 36.08 936.836 33.26 936.836 29C936.836 24.74 933.836 21.92 929.936 21.92C926.036 21.92 923.036 24.74 923.036 29C923.036 33.26 926.036 36.08 929.936 36.08ZM968.507 13.16C974.567 13.16 979.727 17.48 979.727 25.58V44H970.727V26.9C970.727 23.18 968.387 21.44 965.507 21.44C962.207 21.44 959.927 23.36 959.927 27.62V44H950.927V14H959.927V16.82C961.547 14.6 964.547 13.16 968.507 13.16ZM1000.31 44.84C991.187 44.84 984.407 37.94 984.407 29C984.407 20.06 991.187 13.16 1000.31 13.16C1006.13 13.16 1011.29 16.22 1013.87 20.84L1006.01 25.4C1004.99 23.3 1002.83 22.04 1000.19 22.04C996.287 22.04 993.407 24.86 993.407 29C993.407 33.14 996.287 35.96 1000.19 35.96C1002.83 35.96 1005.05 34.7 1006.01 32.6L1013.87 37.1C1011.29 41.78 1006.19 44.84 1000.31 44.84ZM1024.94 32.6C1026.08 35.72 1028.84 36.8 1032.14 36.8C1034.6 36.8 1036.7 35.84 1037.9 34.52L1045.1 38.66C1042.16 42.74 1037.72 44.84 1032.02 44.84C1021.76 44.84 1015.4 37.94 1015.4 29C1015.4 20.06 1021.88 13.16 1031.36 13.16C1040.12 13.16 1046.6 19.94 1046.6 29C1046.6 30.26 1046.48 31.46 1046.24 32.6H1024.94ZM1024.76 25.88H1037.66C1036.7 22.4 1034 21.14 1031.3 21.14C1027.88 21.14 1025.6 22.82 1024.76 25.88ZM1069.65 13.16C1077.51 13.16 1083.99 20.06 1083.99 29C1083.99 37.94 1077.51 44.84 1069.65 44.84C1065.63 44.84 1062.69 43.46 1060.71 41.18V56H1051.71V14H1060.71V16.82C1062.69 14.54 1065.63 13.16 1069.65 13.16ZM1067.85 36.32C1071.99 36.32 1074.99 33.5 1074.99 29C1074.99 24.5 1071.99 21.68 1067.85 21.68C1063.71 21.68 1060.71 24.5 1060.71 29C1060.71 33.5 1063.71 36.32 1067.85 36.32ZM1106.09 22.64H1099.91V33.26C1099.91 35.84 1102.13 36.08 1106.09 35.84V44C1094.33 45.2 1090.91 41.66 1090.91 33.26V22.64H1086.11V14H1090.91V8.3L1099.91 5.6V14H1106.09V22.64Z"
        fill="#582889" />
</svg>
    