<svg width="1126" height="56" viewBox="0 0 1126 56" fill="none" xmlns="http://www.w3.org/2000/svg">
    <path d="M26.3461 11.24H10.4461V19.34H26.0461V28.58H10.4461V44H0.846094V2H26.3461V11.24ZM36.218 11.36C33.278 11.36 30.818 8.9 30.818 5.96C30.818 3.02 33.278 0.559998 36.218 0.559998C39.158 0.559998 41.618 3.02 41.618 5.96C41.618 8.9 39.158 11.36 36.218 11.36ZM31.718 44V14H40.718V44H31.718ZM56.3039 19.34C57.5039 15.32 61.5239 13.4 65.3039 13.4V23.6C61.5839 23 56.3039 24.5 56.3039 30.44V44H47.3039V14H56.3039V19.34ZM77.152 22.76C77.152 26.18 91.912 23.9 91.912 35C91.912 41.9 85.912 44.84 79.432 44.84C73.432 44.84 68.872 42.56 66.532 37.7L74.332 33.26C75.112 35.54 76.792 36.8 79.432 36.8C81.592 36.8 82.672 36.14 82.672 34.94C82.672 31.64 67.912 33.38 67.912 23C67.912 16.46 73.432 13.16 79.672 13.16C84.532 13.16 88.852 15.32 91.372 19.58L83.692 23.72C82.852 22.16 81.652 21.08 79.672 21.08C78.112 21.08 77.152 21.68 77.152 22.76ZM113.107 22.64H106.927V33.26C106.927 35.84 109.147 36.08 113.107 35.84V44C101.347 45.2 97.9266 41.66 97.9266 33.26V22.64H93.1266V14H97.9266V8.3L106.927 5.6V14H113.107V22.64ZM118.502 30.38V21.74H141.302V30.38H118.502ZM190.082 20.6V24.2C190.082 37.04 181.142 44.84 169.382 44.84C156.182 44.84 146.702 35.12 146.702 23.06C146.702 10.88 156.362 1.16 168.722 1.16C176.762 1.16 183.542 5.12 187.082 10.76L178.922 15.44C177.182 12.68 173.402 10.52 168.662 10.52C161.582 10.52 156.302 15.74 156.302 23.12C156.302 30.26 161.342 35.48 169.502 35.48C175.082 35.48 178.742 33.02 180.242 29H169.022V20.6H190.082ZM203.235 32.6C204.375 35.72 207.135 36.8 210.435 36.8C212.895 36.8 214.995 35.84 216.195 34.52L223.395 38.66C220.455 42.74 216.015 44.84 210.315 44.84C200.055 44.84 193.695 37.94 193.695 29C193.695 20.06 200.175 13.16 209.655 13.16C218.415 13.16 224.895 19.94 224.895 29C224.895 30.26 224.775 31.46 224.535 32.6H203.235ZM203.055 25.88H215.955C214.995 22.4 212.295 21.14 209.595 21.14C206.175 21.14 203.895 22.82 203.055 25.88ZM247.579 13.16C253.639 13.16 258.799 17.48 258.799 25.58V44H249.799V26.9C249.799 23.18 247.459 21.44 244.579 21.44C241.279 21.44 238.999 23.36 238.999 27.62V44H229.999V14H238.999V16.82C240.619 14.6 243.619 13.16 247.579 13.16ZM273.02 32.6C274.16 35.72 276.92 36.8 280.22 36.8C282.68 36.8 284.78 35.84 285.98 34.52L293.18 38.66C290.24 42.74 285.8 44.84 280.1 44.84C269.84 44.84 263.48 37.94 263.48 29C263.48 20.06 269.96 13.16 279.44 13.16C288.2 13.16 294.68 19.94 294.68 29C294.68 30.26 294.56 31.46 294.32 32.6H273.02ZM272.84 25.88H285.74C284.78 22.4 282.08 21.14 279.38 21.14C275.96 21.14 273.68 22.82 272.84 25.88ZM308.784 19.34C309.984 15.32 314.004 13.4 317.784 13.4V23.6C314.064 23 308.784 24.5 308.784 30.44V44H299.784V14H308.784V19.34ZM342.893 14H351.893V44H342.893V41.18C340.913 43.46 337.973 44.84 333.953 44.84C326.093 44.84 319.613 37.94 319.613 29C319.613 20.06 326.093 13.16 333.953 13.16C337.973 13.16 340.913 14.54 342.893 16.82V14ZM335.753 36.32C339.893 36.32 342.893 33.5 342.893 29C342.893 24.5 339.893 21.68 335.753 21.68C331.613 21.68 328.613 24.5 328.613 29C328.613 33.5 331.613 36.32 335.753 36.32ZM376.075 22.64H369.895V33.26C369.895 35.84 372.115 36.08 376.075 35.84V44C364.315 45.2 360.895 41.66 360.895 33.26V22.64H356.095V14H360.895V8.3L369.895 5.6V14H376.075V22.64ZM385.671 11.36C382.731 11.36 380.271 8.9 380.271 5.96C380.271 3.02 382.731 0.559998 385.671 0.559998C388.611 0.559998 391.071 3.02 391.071 5.96C391.071 8.9 388.611 11.36 385.671 11.36ZM381.171 44V14H390.171V44H381.171ZM411.157 44.84C402.337 44.84 395.257 37.94 395.257 29C395.257 20.06 402.337 13.16 411.157 13.16C419.977 13.16 427.057 20.06 427.057 29C427.057 37.94 419.977 44.84 411.157 44.84ZM411.157 36.08C415.057 36.08 418.057 33.26 418.057 29C418.057 24.74 415.057 21.92 411.157 21.92C407.257 21.92 404.257 24.74 404.257 29C404.257 33.26 407.257 36.08 411.157 36.08ZM449.728 13.16C455.788 13.16 460.948 17.48 460.948 25.58V44H451.948V26.9C451.948 23.18 449.608 21.44 446.728 21.44C443.428 21.44 441.148 23.36 441.148 27.62V44H432.148V14H441.148V16.82C442.768 14.6 445.768 13.16 449.728 13.16ZM502.468 44.84C490.408 44.84 480.628 35.36 480.628 23C480.628 10.64 490.408 1.16 502.468 1.16C514.528 1.16 524.308 10.64 524.308 23C524.308 35.36 514.528 44.84 502.468 44.84ZM502.468 35.48C509.308 35.48 514.708 30.5 514.708 23C514.708 15.5 509.308 10.52 502.468 10.52C495.628 10.52 490.228 15.5 490.228 23C490.228 30.5 495.628 35.48 502.468 35.48ZM549.753 44.84C537.693 44.84 527.913 35.36 527.913 23C527.913 10.64 537.693 1.16 549.753 1.16C561.813 1.16 571.593 10.64 571.593 23C571.593 35.36 561.813 44.84 549.753 44.84ZM549.753 35.48C556.593 35.48 561.993 30.5 561.993 23C561.993 15.5 556.593 10.52 549.753 10.52C542.913 10.52 537.513 15.5 537.513 23C537.513 30.5 542.913 35.48 549.753 35.48ZM602.498 11.24H586.598V19.34H602.198V28.58H586.598V44H576.998V2H602.498V11.24ZM624.07 2C632.35 2 638.77 8.42 638.77 16.4C638.77 24.38 632.35 30.8 624.07 30.8H617.77V44H608.17V2H624.07ZM624.07 21.8C627.01 21.8 629.17 19.46 629.17 16.4C629.17 13.34 627.01 11 624.07 11H617.77V21.8H624.07ZM674.461 2C682.741 2 689.161 8.42 689.161 16.4C689.161 24.38 682.741 30.8 674.461 30.8H668.161V44H658.561V2H674.461ZM674.461 21.8C677.401 21.8 679.561 19.46 679.561 16.4C679.561 13.34 677.401 11 674.461 11H668.161V21.8H674.461ZM702.066 19.34C703.266 15.32 707.286 13.4 711.066 13.4V23.6C707.346 23 702.066 24.5 702.066 30.44V44H693.066V14H702.066V19.34ZM728.794 44.84C719.974 44.84 712.894 37.94 712.894 29C712.894 20.06 719.974 13.16 728.794 13.16C737.614 13.16 744.694 20.06 744.694 29C744.694 37.94 737.614 44.84 728.794 44.84ZM728.794 36.08C732.694 36.08 735.694 33.26 735.694 29C735.694 24.74 732.694 21.92 728.794 21.92C724.894 21.92 721.894 24.74 721.894 29C721.894 33.26 724.894 36.08 728.794 36.08ZM771.564 2H780.564V44H771.564V41.18C769.584 43.46 766.644 44.84 762.624 44.84C754.764 44.84 748.284 37.94 748.284 29C748.284 20.06 754.764 13.16 762.624 13.16C766.644 13.16 769.584 14.54 771.564 16.82V2ZM764.424 36.32C768.564 36.32 771.564 33.5 771.564 29C771.564 24.5 768.564 21.68 764.424 21.68C760.284 21.68 757.284 24.5 757.284 29C757.284 33.5 760.284 36.32 764.424 36.32ZM806.547 14H815.547V44H806.547V41.18C804.927 43.4 801.927 44.84 797.967 44.84C791.907 44.84 786.747 40.52 786.747 32.42V14H795.747V31.1C795.747 34.82 798.087 36.56 800.967 36.56C804.267 36.56 806.547 34.64 806.547 30.38V14ZM836.548 44.84C827.428 44.84 820.648 37.94 820.648 29C820.648 20.06 827.428 13.16 836.548 13.16C842.368 13.16 847.528 16.22 850.108 20.84L842.248 25.4C841.228 23.3 839.068 22.04 836.428 22.04C832.528 22.04 829.648 24.86 829.648 29C829.648 33.14 832.528 35.96 836.428 35.96C839.068 35.96 841.288 34.7 842.248 32.6L850.108 37.1C847.528 41.78 842.428 44.84 836.548 44.84ZM871.31 22.64H865.13V33.26C865.13 35.84 867.35 36.08 871.31 35.84V44C859.55 45.2 856.13 41.66 856.13 33.26V22.64H851.33V14H856.13V8.3L865.13 5.6V14H871.31V22.64ZM912.331 44.84C899.671 44.84 890.491 35.36 890.491 23C890.491 10.64 899.671 1.16 912.331 1.16C919.951 1.16 926.671 4.94 930.331 10.88L922.051 15.68C920.191 12.44 916.591 10.52 912.331 10.52C904.891 10.52 900.091 15.5 900.091 23C900.091 30.5 904.891 35.48 912.331 35.48C916.591 35.48 920.251 33.56 922.051 30.32L930.331 35.12C926.731 41.06 920.011 44.84 912.331 44.84ZM949.223 44.84C940.403 44.84 933.323 37.94 933.323 29C933.323 20.06 940.403 13.16 949.223 13.16C958.043 13.16 965.123 20.06 965.123 29C965.123 37.94 958.043 44.84 949.223 44.84ZM949.223 36.08C953.123 36.08 956.123 33.26 956.123 29C956.123 24.74 953.123 21.92 949.223 21.92C945.323 21.92 942.323 24.74 942.323 29C942.323 33.26 945.323 36.08 949.223 36.08ZM987.794 13.16C993.854 13.16 999.014 17.48 999.014 25.58V44H990.014V26.9C990.014 23.18 987.674 21.44 984.794 21.44C981.494 21.44 979.214 23.36 979.214 27.62V44H970.214V14H979.214V16.82C980.834 14.6 983.834 13.16 987.794 13.16ZM1019.59 44.84C1010.47 44.84 1003.69 37.94 1003.69 29C1003.69 20.06 1010.47 13.16 1019.59 13.16C1025.41 13.16 1030.57 16.22 1033.15 20.84L1025.29 25.4C1024.27 23.3 1022.11 22.04 1019.47 22.04C1015.57 22.04 1012.69 24.86 1012.69 29C1012.69 33.14 1015.57 35.96 1019.47 35.96C1022.11 35.96 1024.33 34.7 1025.29 32.6L1033.15 37.1C1030.57 41.78 1025.47 44.84 1019.59 44.84ZM1044.23 32.6C1045.37 35.72 1048.13 36.8 1051.43 36.8C1053.89 36.8 1055.99 35.84 1057.19 34.52L1064.39 38.66C1061.45 42.74 1057.01 44.84 1051.31 44.84C1041.05 44.84 1034.69 37.94 1034.69 29C1034.69 20.06 1041.17 13.16 1050.65 13.16C1059.41 13.16 1065.89 19.94 1065.89 29C1065.89 30.26 1065.77 31.46 1065.53 32.6H1044.23ZM1044.05 25.88H1056.95C1055.99 22.4 1053.29 21.14 1050.59 21.14C1047.17 21.14 1044.89 22.82 1044.05 25.88ZM1088.94 13.16C1096.8 13.16 1103.28 20.06 1103.28 29C1103.28 37.94 1096.8 44.84 1088.94 44.84C1084.92 44.84 1081.98 43.46 1080 41.18V56H1071V14H1080V16.82C1081.98 14.54 1084.92 13.16 1088.94 13.16ZM1087.14 36.32C1091.28 36.32 1094.28 33.5 1094.28 29C1094.28 24.5 1091.28 21.68 1087.14 21.68C1083 21.68 1080 24.5 1080 29C1080 33.5 1083 36.32 1087.14 36.32ZM1125.37 22.64H1119.19V33.26C1119.19 35.84 1121.41 36.08 1125.37 35.84V44C1113.61 45.2 1110.19 41.66 1110.19 33.26V22.64H1105.39V14H1110.19V8.3L1119.19 5.6V14H1125.37V22.64Z" fill="#582889"/>
    </svg>
    