<svg width="973" height="104" viewBox="0 0 973 104" fill="none" xmlns="http://www.w3.org/2000/svg">
    <path
        d="M29.2327 40.56C21.1927 40.56 14.6727 34.24 14.6727 26C14.6727 17.76 21.1927 11.44 29.2327 11.44C37.2727 11.44 43.7927 17.76 43.7927 26C43.7927 34.24 37.2727 40.56 29.2327 40.56ZM29.2327 34.32C33.7927 34.32 37.3927 31 37.3927 26C37.3927 21 33.7927 17.68 29.2327 17.68C24.6727 17.68 21.0727 21 21.0727 26C21.0727 31 24.6727 34.32 29.2327 34.32ZM60.7561 40.56C52.7161 40.56 46.1961 34.24 46.1961 26C46.1961 17.76 52.7161 11.44 60.7561 11.44C68.7961 11.44 75.3161 17.76 75.3161 26C75.3161 34.24 68.7961 40.56 60.7561 40.56ZM60.7561 34.32C65.3161 34.32 68.9161 31 68.9161 26C68.9161 21 65.3161 17.68 60.7561 17.68C56.1961 17.68 52.5961 21 52.5961 26C52.5961 31 56.1961 34.32 60.7561 34.32ZM95.9195 18.16H85.3195V23.56H95.7195V29.72H85.3195V40H78.9195V12H95.9195V18.16ZM99.7008 12H106.101V40H99.7008V12ZM138.712 40L137.312 35.6H126.912L125.512 40H118.512L128.032 12H136.192L145.712 40H138.712ZM128.832 29.6H135.392L132.112 19.32L128.832 29.6ZM150.899 18.24C148.939 18.24 147.299 16.6 147.299 14.64C147.299 12.68 148.939 11.04 150.899 11.04C152.859 11.04 154.499 12.68 154.499 14.64C154.499 16.6 152.859 18.24 150.899 18.24ZM147.899 40V20H153.899V40H147.899ZM180.69 19.44C185.29 19.44 188.29 22.72 188.29 27.72V40H182.29V28.24C182.29 26.24 181.33 24.96 179.41 24.96C177.41 24.96 176.29 26.36 176.29 28.72V40H170.29V28.24C170.29 26.24 169.33 24.96 167.41 24.96C165.41 24.96 164.29 26.36 164.29 28.72V40H158.29V20H164.29V21.84C165.21 20.48 166.97 19.44 169.65 19.44C172.01 19.44 173.77 20.4 174.89 22.08C176.01 20.48 177.85 19.44 180.69 19.44ZM198.071 25.84C198.071 28.12 207.911 26.6 207.911 34C207.911 38.6 203.911 40.56 199.591 40.56C195.591 40.56 192.551 39.04 190.991 35.8L196.191 32.84C196.711 34.36 197.831 35.2 199.591 35.2C201.031 35.2 201.751 34.76 201.751 33.96C201.751 31.76 191.911 32.92 191.911 26C191.911 21.64 195.591 19.44 199.751 19.44C202.991 19.44 205.871 20.88 207.551 23.72L202.431 26.48C201.871 25.44 201.071 24.72 199.751 24.72C198.711 24.72 198.071 25.12 198.071 25.84ZM240.102 12V18.16H232.902V40H226.502V18.16H219.302V12H240.102ZM248.71 40.56C242.83 40.56 238.11 35.96 238.11 30C238.11 24.04 242.83 19.44 248.71 19.44C254.59 19.44 259.31 24.04 259.31 30C259.31 35.96 254.59 40.56 248.71 40.56ZM248.71 34.72C251.31 34.72 253.31 32.84 253.31 30C253.31 27.16 251.31 25.28 248.71 25.28C246.11 25.28 244.11 27.16 244.11 30C244.11 32.84 246.11 34.72 248.71 34.72ZM286.264 40.56C277.824 40.56 271.704 34.24 271.704 26C271.704 17.76 277.824 11.44 286.264 11.44C291.344 11.44 295.824 13.96 298.264 17.92L292.744 21.12C291.504 18.96 289.104 17.68 286.264 17.68C281.304 17.68 278.104 21 278.104 26C278.104 31 281.304 34.32 286.264 34.32C289.104 34.32 291.544 33.04 292.744 30.88L298.264 34.08C295.864 38.04 291.384 40.56 286.264 40.56ZM307.454 23.56C308.254 20.88 310.934 19.6 313.454 19.6V26.4C310.974 26 307.454 27 307.454 30.96V40H301.454V20H307.454V23.56ZM321.033 32.4C321.793 34.48 323.633 35.2 325.833 35.2C327.473 35.2 328.873 34.56 329.673 33.68L334.473 36.44C332.513 39.16 329.553 40.56 325.753 40.56C318.913 40.56 314.673 35.96 314.673 30C314.673 24.04 318.993 19.44 325.313 19.44C331.153 19.44 335.473 23.96 335.473 30C335.473 30.84 335.393 31.64 335.233 32.4H321.033ZM320.913 27.92H329.513C328.873 25.6 327.073 24.76 325.273 24.76C322.993 24.76 321.473 25.88 320.913 27.92ZM353.2 20H359.2V40H353.2V38.12C351.88 39.64 349.92 40.56 347.24 40.56C342 40.56 337.68 35.96 337.68 30C337.68 24.04 342 19.44 347.24 19.44C349.92 19.44 351.88 20.36 353.2 21.88V20ZM348.44 34.88C351.2 34.88 353.2 33 353.2 30C353.2 27 351.2 25.12 348.44 25.12C345.68 25.12 343.68 27 343.68 30C343.68 33 345.68 34.88 348.44 34.88ZM375.322 25.76H371.202V32.84C371.202 34.56 372.682 34.72 375.322 34.56V40C367.482 40.8 365.202 38.44 365.202 32.84V25.76H362.002V20H365.202V16.2L371.202 14.4V20H375.322V25.76ZM383.689 32.4C384.449 34.48 386.289 35.2 388.489 35.2C390.129 35.2 391.529 34.56 392.329 33.68L397.129 36.44C395.169 39.16 392.209 40.56 388.409 40.56C381.569 40.56 377.329 35.96 377.329 30C377.329 24.04 381.649 19.44 387.969 19.44C393.809 19.44 398.129 23.96 398.129 30C398.129 30.84 398.049 31.64 397.889 32.4H383.689ZM383.569 27.92H392.169C391.529 25.6 389.729 24.76 387.929 24.76C385.649 24.76 384.129 25.88 383.569 27.92ZM429.532 40L428.132 35.6H417.732L416.332 40H409.332L418.852 12H427.012L436.532 40H429.532ZM419.652 29.6H426.212L422.932 19.32L419.652 29.6ZM455.64 40L446.52 12H453.52L459.72 32.6L465.92 12H472.92L463.8 40H455.64ZM477.345 18.24C475.385 18.24 473.745 16.6 473.745 14.64C473.745 12.68 475.385 11.04 477.345 11.04C479.305 11.04 480.945 12.68 480.945 14.64C480.945 16.6 479.305 18.24 477.345 18.24ZM474.345 40V20H480.345V40H474.345ZM496.695 19.44C501.935 19.44 506.255 24.04 506.255 30C506.255 35.96 501.935 40.56 496.695 40.56C494.015 40.56 492.055 39.64 490.735 38.12V40H484.735V12H490.735V21.88C492.055 20.36 494.015 19.44 496.695 19.44ZM495.495 34.88C498.255 34.88 500.255 33 500.255 30C500.255 27 498.255 25.12 495.495 25.12C492.735 25.12 490.735 27 490.735 30C490.735 33 492.735 34.88 495.495 34.88ZM515.657 23.56C516.457 20.88 519.137 19.6 521.657 19.6V26.4C519.177 26 515.657 27 515.657 30.96V40H509.657V20H515.657V23.56ZM538.396 20H544.396V40H538.396V38.12C537.076 39.64 535.116 40.56 532.436 40.56C527.196 40.56 522.876 35.96 522.876 30C522.876 24.04 527.196 19.44 532.436 19.44C535.116 19.44 537.076 20.36 538.396 21.88V20ZM533.636 34.88C536.396 34.88 538.396 33 538.396 30C538.396 27 536.396 25.12 533.636 25.12C530.876 25.12 528.876 27 528.876 30C528.876 33 530.876 34.88 533.636 34.88ZM560.518 19.44C564.558 19.44 567.998 22.32 567.998 27.72V40H561.998V28.6C561.998 26.12 560.438 24.96 558.518 24.96C556.318 24.96 554.798 26.24 554.798 29.08V40H548.798V20H554.798V21.88C555.878 20.4 557.878 19.44 560.518 19.44ZM583.838 25.76H579.718V32.84C579.718 34.56 581.198 34.72 583.838 34.56V40C575.998 40.8 573.718 38.44 573.718 32.84V25.76H570.518V20H573.718V16.2L579.718 14.4V20H583.838V25.76ZM604.226 33.84H615.426V40H597.826V12H615.226V18.16H604.226V22.8H614.226V28.88H604.226V33.84ZM628.046 40.56C621.966 40.56 617.446 35.96 617.446 30C617.446 24.04 621.966 19.44 628.046 19.44C631.926 19.44 635.366 21.48 637.086 24.56L631.846 27.6C631.166 26.2 629.726 25.36 627.966 25.36C625.366 25.36 623.446 27.24 623.446 30C623.446 32.76 625.366 34.64 627.966 34.64C629.726 34.64 631.206 33.8 631.846 32.4L637.086 35.4C635.366 38.52 631.966 40.56 628.046 40.56ZM648.71 40.56C642.83 40.56 638.11 35.96 638.11 30C638.11 24.04 642.83 19.44 648.71 19.44C654.59 19.44 659.31 24.04 659.31 30C659.31 35.96 654.59 40.56 648.71 40.56ZM648.71 34.72C651.31 34.72 653.31 32.84 653.31 30C653.31 27.16 651.31 25.28 648.71 25.28C646.11 25.28 644.11 27.16 644.11 30C644.11 32.84 646.11 34.72 648.71 34.72ZM667.993 25.84C667.993 28.12 677.833 26.6 677.833 34C677.833 38.6 673.833 40.56 669.513 40.56C665.513 40.56 662.473 39.04 660.913 35.8L666.113 32.84C666.633 34.36 667.753 35.2 669.513 35.2C670.953 35.2 671.673 34.76 671.673 33.96C671.673 31.76 661.833 32.92 661.833 26C661.833 21.64 665.513 19.44 669.673 19.44C672.913 19.44 675.793 20.88 677.473 23.72L672.353 26.48C671.793 25.44 670.993 24.72 669.673 24.72C668.633 24.72 667.993 25.12 667.993 25.84ZM692.609 20H699.009L692.169 39.4C689.929 45.76 686.369 48.28 680.769 48V42.4C683.569 42.4 684.889 41.52 685.769 39.08L677.809 20H684.409L688.849 32.24L692.609 20ZM705.689 25.84C705.689 28.12 715.529 26.6 715.529 34C715.529 38.6 711.529 40.56 707.209 40.56C703.209 40.56 700.169 39.04 698.609 35.8L703.809 32.84C704.329 34.36 705.449 35.2 707.209 35.2C708.649 35.2 709.369 34.76 709.369 33.96C709.369 31.76 699.529 32.92 699.529 26C699.529 21.64 703.209 19.44 707.369 19.44C710.609 19.44 713.489 20.88 715.169 23.72L710.049 26.48C709.489 25.44 708.689 24.72 707.369 24.72C706.329 24.72 705.689 25.12 705.689 25.84ZM729.658 25.76H725.538V32.84C725.538 34.56 727.018 34.72 729.658 34.56V40C721.818 40.8 719.538 38.44 719.538 32.84V25.76H716.338V20H719.538V16.2L725.538 14.4V20H729.658V25.76ZM738.025 32.4C738.785 34.48 740.625 35.2 742.825 35.2C744.465 35.2 745.865 34.56 746.665 33.68L751.465 36.44C749.505 39.16 746.545 40.56 742.745 40.56C735.905 40.56 731.665 35.96 731.665 30C731.665 24.04 735.985 19.44 742.305 19.44C748.145 19.44 752.465 23.96 752.465 30C752.465 30.84 752.385 31.64 752.225 32.4H738.025ZM737.905 27.92H746.505C745.865 25.6 744.065 24.76 742.265 24.76C739.985 24.76 738.465 25.88 737.905 27.92ZM778.268 19.44C782.868 19.44 785.868 22.72 785.868 27.72V40H779.868V28.24C779.868 26.24 778.908 24.96 776.988 24.96C774.988 24.96 773.868 26.36 773.868 28.72V40H767.868V28.24C767.868 26.24 766.908 24.96 764.988 24.96C762.988 24.96 761.868 26.36 761.868 28.72V40H755.868V20H761.868V21.84C762.788 20.48 764.548 19.44 767.228 19.44C769.588 19.44 771.348 20.4 772.468 22.08C773.588 20.48 775.428 19.44 778.268 19.44ZM800.17 12H806.57V40H800.17V12ZM822.9 19.44C826.94 19.44 830.38 22.32 830.38 27.72V40H824.38V28.6C824.38 26.12 822.82 24.96 820.9 24.96C818.7 24.96 817.18 26.24 817.18 29.08V40H811.18V20H817.18V21.88C818.26 20.4 820.26 19.44 822.9 19.44ZM850.421 40L842.701 12H849.421L854.261 31.6L859.661 12H864.861L870.261 31.6L875.101 12H881.821L874.101 40H866.821L862.261 23.48L857.701 40H850.421ZM895.361 19.44C899.401 19.44 902.841 22.32 902.841 27.72V40H896.841V28.6C896.841 26.12 895.281 24.96 893.361 24.96C891.161 24.96 889.641 26.24 889.641 29.08V40H883.641V12H889.641V21.88C890.721 20.4 892.721 19.44 895.361 19.44ZM909.962 18.24C908.002 18.24 906.362 16.6 906.362 14.64C906.362 12.68 908.002 11.04 909.962 11.04C911.922 11.04 913.562 12.68 913.562 14.64C913.562 16.6 911.922 18.24 909.962 18.24ZM906.962 40V20H912.962V40H906.962ZM926.952 40.56C920.872 40.56 916.352 35.96 916.352 30C916.352 24.04 920.872 19.44 926.952 19.44C930.832 19.44 934.272 21.48 935.992 24.56L930.752 27.6C930.072 26.2 928.632 25.36 926.872 25.36C924.272 25.36 922.352 27.24 922.352 30C922.352 32.76 924.272 34.64 926.872 34.64C928.632 34.64 930.112 33.8 930.752 32.4L935.992 35.4C934.272 38.52 930.872 40.56 926.952 40.56ZM950.127 19.44C954.167 19.44 957.607 22.32 957.607 27.72V40H951.607V28.6C951.607 26.12 950.047 24.96 948.127 24.96C945.927 24.96 944.407 26.24 944.407 29.08V40H938.407V12H944.407V21.88C945.487 20.4 947.487 19.44 950.127 19.44ZM81.0945 92L79.6945 87.6H69.2945L67.8945 92H60.8945L70.4145 64H78.5745L88.0945 92H81.0945ZM71.2145 81.6H77.7745L74.4945 71.32L71.2145 81.6ZM95.7667 77.84C95.7667 80.12 105.607 78.6 105.607 86C105.607 90.6 101.607 92.56 97.2867 92.56C93.2867 92.56 90.2467 91.04 88.6867 87.8L93.8867 84.84C94.4067 86.36 95.5267 87.2 97.2867 87.2C98.7267 87.2 99.4467 86.76 99.4467 85.96C99.4467 83.76 89.6067 84.92 89.6067 78C89.6067 73.64 93.2867 71.44 97.4467 71.44C100.687 71.44 103.567 72.88 105.247 75.72L100.127 78.48C99.5667 77.44 98.7667 76.72 97.4467 76.72C96.4067 76.72 95.7667 77.12 95.7667 77.84ZM113.267 77.84C113.267 80.12 123.107 78.6 123.107 86C123.107 90.6 119.107 92.56 114.787 92.56C110.787 92.56 107.747 91.04 106.187 87.8L111.387 84.84C111.907 86.36 113.027 87.2 114.787 87.2C116.227 87.2 116.947 86.76 116.947 85.96C116.947 83.76 107.107 84.92 107.107 78C107.107 73.64 110.787 71.44 114.947 71.44C118.187 71.44 121.067 72.88 122.747 75.72L117.627 78.48C117.067 77.44 116.267 76.72 114.947 76.72C113.907 76.72 113.267 77.12 113.267 77.84ZM131.267 84.4C132.027 86.48 133.867 87.2 136.067 87.2C137.707 87.2 139.107 86.56 139.907 85.68L144.707 88.44C142.747 91.16 139.787 92.56 135.987 92.56C129.147 92.56 124.907 87.96 124.907 82C124.907 76.04 129.227 71.44 135.547 71.44C141.387 71.44 145.707 75.96 145.707 82C145.707 82.84 145.627 83.64 145.467 84.4H131.267ZM131.147 79.92H139.747C139.107 77.6 137.307 76.76 135.507 76.76C133.227 76.76 131.707 77.88 131.147 79.92ZM160.244 77.76H156.124V84.84C156.124 86.56 157.604 86.72 160.244 86.56V92C152.404 92.8 150.124 90.44 150.124 84.84V77.76H146.924V72H150.124V68.2L156.124 66.4V72H160.244V77.76ZM169.126 77.84C169.126 80.12 178.966 78.6 178.966 86C178.966 90.6 174.966 92.56 170.646 92.56C166.646 92.56 163.606 91.04 162.046 87.8L167.246 84.84C167.766 86.36 168.886 87.2 170.646 87.2C172.086 87.2 172.806 86.76 172.806 85.96C172.806 83.76 162.966 84.92 162.966 78C162.966 73.64 166.646 71.44 170.806 71.44C174.046 71.44 176.926 72.88 178.606 75.72L173.486 78.48C172.926 77.44 172.126 76.72 170.806 76.72C169.766 76.72 169.126 77.12 169.126 77.84ZM198.077 92L190.357 64H197.077L201.917 83.6L207.317 64H212.517L217.917 83.6L222.757 64H229.477L221.757 92H214.477L209.917 75.48L205.357 92H198.077ZM234.298 70.24C232.338 70.24 230.698 68.6 230.698 66.64C230.698 64.68 232.338 63.04 234.298 63.04C236.258 63.04 237.898 64.68 237.898 66.64C237.898 68.6 236.258 70.24 234.298 70.24ZM231.298 92V72H237.298V92H231.298ZM253.408 77.76H249.288V84.84C249.288 86.56 250.768 86.72 253.408 86.56V92C245.568 92.8 243.288 90.44 243.288 84.84V77.76H240.088V72H243.288V68.2L249.288 66.4V72H253.408V77.76ZM268.525 71.44C272.565 71.44 276.005 74.32 276.005 79.72V92H270.005V80.6C270.005 78.12 268.445 76.96 266.525 76.96C264.325 76.96 262.805 78.24 262.805 81.08V92H256.805V64H262.805V73.88C263.885 72.4 265.885 71.44 268.525 71.44ZM283.126 70.24C281.166 70.24 279.526 68.6 279.526 66.64C279.526 64.68 281.166 63.04 283.126 63.04C285.086 63.04 286.726 64.68 286.726 66.64C286.726 68.6 285.086 70.24 283.126 70.24ZM280.126 92V72H286.126V92H280.126ZM302.236 71.44C306.276 71.44 309.716 74.32 309.716 79.72V92H303.716V80.6C303.716 78.12 302.156 76.96 300.236 76.96C298.036 76.96 296.516 78.24 296.516 81.08V92H290.516V72H296.516V73.88C297.596 72.4 299.596 71.44 302.236 71.44ZM342.837 64V70.16H335.637V92H329.237V70.16H322.037V64H342.837ZM357.158 71.44C361.198 71.44 364.638 74.32 364.638 79.72V92H358.638V80.6C358.638 78.12 357.078 76.96 355.158 76.96C352.958 76.96 351.438 78.24 351.438 81.08V92H345.438V64H351.438V73.88C352.518 72.4 354.518 71.44 357.158 71.44ZM374.119 84.4C374.879 86.48 376.719 87.2 378.919 87.2C380.559 87.2 381.959 86.56 382.759 85.68L387.559 88.44C385.599 91.16 382.639 92.56 378.839 92.56C371.999 92.56 367.759 87.96 367.759 82C367.759 76.04 372.079 71.44 378.399 71.44C384.239 71.44 388.559 75.96 388.559 82C388.559 82.84 388.479 83.64 388.319 84.4H374.119ZM373.999 79.92H382.599C381.959 77.6 380.159 76.76 378.359 76.76C376.079 76.76 374.559 77.88 373.999 79.92ZM419.522 77.48C421.602 78.8 422.962 80.96 422.962 83.8C422.962 88.76 418.922 92 413.922 92H402.162V64H413.122C418.002 64 421.962 67.16 421.962 72C421.962 74.32 421.042 76.16 419.522 77.48ZM413.122 70H408.562V74.96H413.122C414.562 74.96 415.562 73.92 415.562 72.48C415.562 71.04 414.602 70 413.122 70ZM413.922 86C415.522 86 416.562 84.88 416.562 83.32C416.562 81.76 415.522 80.64 413.922 80.64H408.562V86H413.922ZM428.946 70.24C426.986 70.24 425.346 68.6 425.346 66.64C425.346 64.68 426.986 63.04 428.946 63.04C430.906 63.04 432.546 64.68 432.546 66.64C432.546 68.6 430.906 70.24 428.946 70.24ZM425.946 92V72H431.946V92H425.946ZM448.057 77.76H443.937V84.84C443.937 86.56 445.417 86.72 448.057 86.56V92C440.217 92.8 437.937 90.44 437.937 84.84V77.76H434.737V72H437.937V68.2L443.937 66.4V72H448.057V77.76ZM460.663 92.56C454.583 92.56 450.063 87.96 450.063 82C450.063 76.04 454.583 71.44 460.663 71.44C464.543 71.44 467.983 73.48 469.703 76.56L464.463 79.6C463.783 78.2 462.343 77.36 460.583 77.36C457.983 77.36 456.063 79.24 456.063 82C456.063 84.76 457.983 86.64 460.583 86.64C462.343 86.64 463.823 85.8 464.463 84.4L469.703 87.4C467.983 90.52 464.583 92.56 460.663 92.56ZM481.327 92.56C475.447 92.56 470.727 87.96 470.727 82C470.727 76.04 475.447 71.44 481.327 71.44C487.207 71.44 491.927 76.04 491.927 82C491.927 87.96 487.207 92.56 481.327 92.56ZM481.327 86.72C483.927 86.72 485.927 84.84 485.927 82C485.927 79.16 483.927 77.28 481.327 77.28C478.727 77.28 476.727 79.16 476.727 82C476.727 84.84 478.727 86.72 481.327 86.72ZM498.321 70.24C496.361 70.24 494.721 68.6 494.721 66.64C494.721 64.68 496.361 63.04 498.321 63.04C500.281 63.04 501.921 64.68 501.921 66.64C501.921 68.6 500.281 70.24 498.321 70.24ZM495.321 92V72H501.321V92H495.321ZM517.432 71.44C521.472 71.44 524.912 74.32 524.912 79.72V92H518.912V80.6C518.912 78.12 517.352 76.96 515.432 76.96C513.232 76.96 511.712 78.24 511.712 81.08V92H505.712V72H511.712V73.88C512.792 72.4 514.792 71.44 517.432 71.44ZM554.832 64H561.232V92H556.432L545.632 76.8V92H539.232V64H544.032L554.832 79.2V64ZM571.189 84.4C571.949 86.48 573.789 87.2 575.989 87.2C577.629 87.2 579.029 86.56 579.829 85.68L584.629 88.44C582.669 91.16 579.709 92.56 575.909 92.56C569.069 92.56 564.829 87.96 564.829 82C564.829 76.04 569.149 71.44 575.469 71.44C581.309 71.44 585.629 75.96 585.629 82C585.629 82.84 585.549 83.64 585.389 84.4H571.189ZM571.069 79.92H579.669C579.029 77.6 577.229 76.76 575.429 76.76C573.149 76.76 571.629 77.88 571.069 79.92ZM600.166 77.76H596.046V84.84C596.046 86.56 597.526 86.72 600.166 86.56V92C592.326 92.8 590.046 90.44 590.046 84.84V77.76H586.846V72H590.046V68.2L596.046 66.4V72H600.166V77.76ZM625.954 72H632.354L625.954 92H620.354L617.154 81.32L613.954 92H608.354L601.954 72H608.354L611.234 82.72L614.354 72H619.954L623.074 82.72L625.954 72ZM643.554 92.56C637.674 92.56 632.954 87.96 632.954 82C632.954 76.04 637.674 71.44 643.554 71.44C649.434 71.44 654.154 76.04 654.154 82C654.154 87.96 649.434 92.56 643.554 92.56ZM643.554 86.72C646.154 86.72 648.154 84.84 648.154 82C648.154 79.16 646.154 77.28 643.554 77.28C640.954 77.28 638.954 79.16 638.954 82C638.954 84.84 640.954 86.72 643.554 86.72ZM663.548 75.56C664.348 72.88 667.028 71.6 669.548 71.6V78.4C667.068 78 663.548 79 663.548 82.96V92H657.548V72H663.548V75.56ZM691.552 92H684.752L678.352 83.16V92H672.352V64H678.352V80.76L684.352 72H691.352L684.072 82L691.552 92ZM717.319 92.56C708.879 92.56 702.759 86.24 702.759 78C702.759 69.76 708.879 63.44 717.319 63.44C722.399 63.44 726.879 65.96 729.319 69.92L723.799 73.12C722.559 70.96 720.159 69.68 717.319 69.68C712.359 69.68 709.159 73 709.159 78C709.159 83 712.359 86.32 717.319 86.32C720.159 86.32 722.599 85.04 723.799 82.88L729.319 86.08C726.919 90.04 722.439 92.56 717.319 92.56ZM746.833 72H752.833V92H746.833V90.12C745.513 91.64 743.553 92.56 740.873 92.56C735.633 92.56 731.313 87.96 731.313 82C731.313 76.04 735.633 71.44 740.873 71.44C743.553 71.44 745.513 72.36 746.833 73.88V72ZM742.073 86.88C744.833 86.88 746.833 85 746.833 82C746.833 79 744.833 77.12 742.073 77.12C739.313 77.12 737.313 79 737.313 82C737.313 85 739.313 86.88 742.073 86.88ZM768.955 71.44C772.995 71.44 776.435 74.32 776.435 79.72V92H770.435V80.6C770.435 78.12 768.875 76.96 766.955 76.96C764.755 76.96 763.235 78.24 763.235 81.08V92H757.235V72H763.235V73.88C764.315 72.4 766.315 71.44 768.955 71.44ZM809.555 64V70.16H802.355V92H795.955V70.16H788.755V64H809.555ZM823.877 71.44C827.917 71.44 831.357 74.32 831.357 79.72V92H825.357V80.6C825.357 78.12 823.797 76.96 821.877 76.96C819.677 76.96 818.157 78.24 818.157 81.08V92H812.157V64H818.157V73.88C819.237 72.4 821.237 71.44 823.877 71.44ZM841.477 75.56C842.277 72.88 844.957 71.6 847.477 71.6V78.4C844.997 78 841.477 79 841.477 82.96V92H835.477V72H841.477V75.56ZM853.282 70.24C851.322 70.24 849.682 68.6 849.682 66.64C849.682 64.68 851.322 63.04 853.282 63.04C855.242 63.04 856.882 64.68 856.882 66.64C856.882 68.6 855.242 70.24 853.282 70.24ZM850.282 92V72H856.282V92H850.282ZM873.433 72H880.073L872.673 92H865.873L858.473 72H865.113L869.273 84.68L873.433 72ZM886.853 84.4C887.613 86.48 889.453 87.2 891.653 87.2C893.293 87.2 894.693 86.56 895.493 85.68L900.293 88.44C898.333 91.16 895.373 92.56 891.573 92.56C884.733 92.56 880.493 87.96 880.493 82C880.493 76.04 884.813 71.44 891.133 71.44C896.973 71.44 901.293 75.96 901.293 82C901.293 82.84 901.213 83.64 901.053 84.4H886.853ZM886.733 79.92H895.333C894.693 77.6 892.893 76.76 891.093 76.76C888.813 76.76 887.293 77.88 886.733 79.92ZM906.495 92.56C904.415 92.56 902.695 90.84 902.695 88.76C902.695 86.68 904.415 84.96 906.495 84.96C908.575 84.96 910.295 86.68 910.295 88.76C910.295 90.84 908.575 92.56 906.495 92.56Z"
        fill="#6F49C5" />
</svg>
    