<svg width="329" height="45" viewBox="0 0 329 45" fill="none" xmlns="http://www.w3.org/2000/svg">
    <path
        d="M22.3529 44.84C10.2929 44.84 0.512891 35.36 0.512891 23C0.512891 10.64 10.2929 1.16 22.3529 1.16C34.4129 1.16 44.1929 10.64 44.1929 23C44.1929 35.36 34.4129 44.84 22.3529 44.84ZM22.3529 35.48C29.1929 35.48 34.5929 30.5 34.5929 23C34.5929 15.5 29.1929 10.52 22.3529 10.52C15.5129 10.52 10.1129 15.5 10.1129 23C10.1129 30.5 15.5129 35.48 22.3529 35.48ZM69.638 44.84C57.578 44.84 47.798 35.36 47.798 23C47.798 10.64 57.578 1.16 69.638 1.16C81.698 1.16 91.478 10.64 91.478 23C91.478 35.36 81.698 44.84 69.638 44.84ZM69.638 35.48C76.478 35.48 81.878 30.5 81.878 23C81.878 15.5 76.478 10.52 69.638 10.52C62.798 10.52 57.398 15.5 57.398 23C57.398 30.5 62.798 35.48 69.638 35.48ZM122.383 11.24H106.483V19.34H122.083V28.58H106.483V44H96.8832V2H122.383V11.24ZM128.055 2H137.655V44H128.055V2ZM155.971 2L151.171 19.7H143.971L146.371 2H155.971ZM165.689 22.76C165.689 26.18 180.449 23.9 180.449 35C180.449 41.9 174.449 44.84 167.969 44.84C161.969 44.84 157.409 42.56 155.069 37.7L162.869 33.26C163.649 35.54 165.329 36.8 167.969 36.8C170.129 36.8 171.209 36.14 171.209 34.94C171.209 31.64 156.449 33.38 156.449 23C156.449 16.46 161.969 13.16 168.209 13.16C173.069 13.16 177.389 15.32 179.909 19.58L172.229 23.72C171.389 22.16 170.189 21.08 168.209 21.08C166.649 21.08 165.689 21.68 165.689 22.76ZM242.116 20.6V24.2C242.116 37.04 233.176 44.84 221.416 44.84C208.216 44.84 198.736 35.12 198.736 23.06C198.736 10.88 208.396 1.16 220.756 1.16C228.796 1.16 235.576 5.12 239.116 10.76L230.956 15.44C229.216 12.68 225.436 10.52 220.696 10.52C213.616 10.52 208.336 15.74 208.336 23.12C208.336 30.26 213.376 35.48 221.536 35.48C227.116 35.48 230.776 33.02 232.276 29H221.056V20.6H242.116ZM261.628 44.84C252.808 44.84 245.728 37.94 245.728 29C245.728 20.06 252.808 13.16 261.628 13.16C270.448 13.16 277.528 20.06 277.528 29C277.528 37.94 270.448 44.84 261.628 44.84ZM261.628 36.08C265.528 36.08 268.528 33.26 268.528 29C268.528 24.74 265.528 21.92 261.628 21.92C257.728 21.92 254.728 24.74 254.728 29C254.728 33.26 257.728 36.08 261.628 36.08ZM304.398 14H313.398V44H304.398V41.18C302.418 43.46 299.478 44.84 295.458 44.84C287.598 44.84 281.118 37.94 281.118 29C281.118 20.06 287.598 13.16 295.458 13.16C299.478 13.16 302.418 14.54 304.398 16.82V14ZM297.258 36.32C301.398 36.32 304.398 33.5 304.398 29C304.398 24.5 301.398 21.68 297.258 21.68C293.118 21.68 290.118 24.5 290.118 29C290.118 33.5 293.118 36.32 297.258 36.32ZM320.001 44V0.199999H329.001V44H320.001Z"
        fill="#582889" />
</svg>
    