<svg width="120" height="120" viewBox="0 0 120 120" fill="none" xmlns="http://www.w3.org/2000/svg">
    <path
        d="M90.6985 41.4L79.2758 55.8807L78.825 56.4522L79.2303 57.0568L85.3303 66.1568L85.6274 66.6H86.1609H89.4609C92.5899 66.6 94.6971 67.4281 96.0124 68.6267C97.3196 69.8179 97.9609 71.4804 97.9609 73.4C97.9609 75.3196 97.3196 76.9822 96.0124 78.1734C94.6971 79.372 92.5899 80.2 89.4609 80.2C86.5661 80.2 84.5179 79.5377 83.0206 78.4229C81.5185 77.3046 80.4636 75.6511 79.7054 73.4715L79.3075 72.3273L78.2594 72.9349L64.4594 80.9349L63.6999 81.3752L64.0381 82.1853C68.531 92.9473 78.5645 97.8 89.4609 97.8C96.3984 97.8 103.015 95.7452 107.915 91.6417C112.838 87.52 115.961 81.3853 115.961 73.4C115.961 63.6883 109.94 56.6827 101.69 53.345L112.947 39.0178L113.161 38.7459V38.4V25.4V24.4H112.161H67.1609H66.1609V25.4V40.4V41.4H67.1609H90.6985Z"
        stroke="#642D83" stroke-width="2" />
    <path
        d="M5 60.4C5 71.3463 7.6337 80.6811 12.6662 87.305C17.7222 93.9596 25.1448 97.8 34.5 97.8C43.8552 97.8 51.2778 93.9596 56.3338 87.305C61.3663 80.6811 64 71.3463 64 60.4C64 49.4537 61.3663 40.1189 56.3338 33.495C51.2778 26.8404 43.8552 23 34.5 23C25.1448 23 17.7222 26.8404 12.6662 33.495C7.6337 40.1189 5 49.4537 5 60.4ZM46 60.4C46 67.0797 44.9803 72.0678 43.039 75.3539C41.1432 78.563 38.345 80.2 34.5 80.2C30.655 80.2 27.8568 78.563 25.961 75.3539C24.0197 72.0678 23 67.0797 23 60.4C23 53.7203 24.0197 48.7322 25.961 45.4461C27.8568 42.237 30.655 40.6 34.5 40.6C38.345 40.6 41.1432 42.237 43.039 45.4461C44.9803 48.7322 46 53.7203 46 60.4Z"
        stroke="#642D83" stroke-width="2" />
</svg>
    