<svg width="1088" height="232" viewBox="0 0 1088 232" fill="none" xmlns="http://www.w3.org/2000/svg">
    <path
        d="M267.58 90.4C247.48 90.4 231.18 74.6 231.18 54C231.18 33.4 247.48 17.6 267.58 17.6C287.68 17.6 303.98 33.4 303.98 54C303.98 74.6 287.68 90.4 267.58 90.4ZM267.58 74.8C278.98 74.8 287.98 66.5 287.98 54C287.98 41.5 278.98 33.2 267.58 33.2C256.18 33.2 247.18 41.5 247.18 54C247.18 66.5 256.18 74.8 267.58 74.8ZM327.488 47.9C329.488 41.2 336.188 38 342.488 38V55C336.288 54 327.488 56.5 327.488 66.4V89H312.488V39H327.488V47.9ZM384.335 19H399.335V89H384.335V84.3C381.035 88.1 376.135 90.4 369.435 90.4C356.335 90.4 345.535 78.9 345.535 64C345.535 49.1 356.335 37.6 369.435 37.6C376.135 37.6 381.035 39.9 384.335 43.7V19ZM372.435 76.2C379.335 76.2 384.335 71.5 384.335 64C384.335 56.5 379.335 51.8 372.435 51.8C365.535 51.8 360.535 56.5 360.535 64C360.535 71.5 365.535 76.2 372.435 76.2ZM417.84 34.6C412.94 34.6 408.84 30.5 408.84 25.6C408.84 20.7 412.94 16.6 417.84 16.6C422.74 16.6 426.84 20.7 426.84 25.6C426.84 30.5 422.74 34.6 417.84 34.6ZM410.34 89V39H425.34V89H410.34ZM465.616 37.6C475.716 37.6 484.316 44.8 484.316 58.3V89H469.316V60.5C469.316 54.3 465.416 51.4 460.616 51.4C455.116 51.4 451.316 54.6 451.316 61.7V89H436.316V39H451.316V43.7C454.016 40 459.016 37.6 465.616 37.6ZM530.917 39H545.917V89H530.917V84.3C527.617 88.1 522.717 90.4 516.017 90.4C502.917 90.4 492.117 78.9 492.117 64C492.117 49.1 502.917 37.6 516.017 37.6C522.717 37.6 527.617 39.9 530.917 43.7V39ZM519.017 76.2C525.917 76.2 530.917 71.5 530.917 64C530.917 56.5 525.917 51.8 519.017 51.8C512.117 51.8 507.117 56.5 507.117 64C507.117 71.5 512.117 76.2 519.017 76.2ZM556.922 89V16H571.922V89H556.922ZM641.798 90.4C621.698 90.4 605.398 74.6 605.398 54C605.398 33.4 621.698 17.6 641.798 17.6C661.898 17.6 678.198 33.4 678.198 54C678.198 74.6 661.898 90.4 641.798 90.4ZM641.798 74.8C653.198 74.8 662.198 66.5 662.198 54C662.198 41.5 653.198 33.2 641.798 33.2C630.398 33.2 621.398 41.5 621.398 54C621.398 66.5 630.398 74.8 641.798 74.8ZM716.607 37.6C729.707 37.6 740.507 49.1 740.507 64C740.507 78.9 729.707 90.4 716.607 90.4C709.907 90.4 705.007 88.1 701.707 84.3V109H686.707V39H701.707V43.7C705.007 39.9 709.907 37.6 716.607 37.6ZM713.607 76.2C720.507 76.2 725.507 71.5 725.507 64C725.507 56.5 720.507 51.8 713.607 51.8C706.707 51.8 701.707 56.5 701.707 64C701.707 71.5 706.707 76.2 713.607 76.2ZM762.412 70C764.312 75.2 768.912 77 774.412 77C778.512 77 782.012 75.4 784.012 73.2L796.012 80.1C791.112 86.9 783.712 90.4 774.212 90.4C757.112 90.4 746.512 78.9 746.512 64C746.512 49.1 757.312 37.6 773.112 37.6C787.712 37.6 798.512 48.9 798.512 64C798.512 66.1 798.312 68.1 797.912 70H762.412ZM762.112 58.8H783.612C782.012 53 777.512 50.9 773.012 50.9C767.312 50.9 763.512 53.7 762.112 58.8ZM836.32 37.6C846.42 37.6 855.02 44.8 855.02 58.3V89H840.02V60.5C840.02 54.3 836.12 51.4 831.32 51.4C825.82 51.4 822.02 54.6 822.02 61.7V89H807.02V39H822.02V43.7C824.72 40 829.72 37.6 836.32 37.6Z"
        fill="url(#paint0_linear_0_204)" />
    <path
        d="M48.7012 156.4H22.2012V169.9H48.2012V185.3H22.2012V211H6.20117V141H48.7012V156.4ZM65.1543 156.6C60.2543 156.6 56.1543 152.5 56.1543 147.6C56.1543 142.7 60.2543 138.6 65.1543 138.6C70.0543 138.6 74.1543 142.7 74.1543 147.6C74.1543 152.5 70.0543 156.6 65.1543 156.6ZM57.6543 211V161H72.6543V211H57.6543ZM112.931 159.6C123.031 159.6 131.631 166.8 131.631 180.3V211H116.631V182.5C116.631 176.3 112.731 173.4 107.931 173.4C102.431 173.4 98.6309 176.6 98.6309 183.7V211H83.6309V161H98.6309V165.7C101.331 162 106.331 159.6 112.931 159.6ZM178.232 161H193.232V211H178.232V206.3C174.932 210.1 170.032 212.4 163.332 212.4C150.232 212.4 139.432 200.9 139.432 186C139.432 171.1 150.232 159.6 163.332 159.6C170.032 159.6 174.932 161.9 178.232 165.7V161ZM166.332 198.2C173.232 198.2 178.232 193.5 178.232 186C178.232 178.5 173.232 173.8 166.332 173.8C159.432 173.8 154.432 178.5 154.432 186C154.432 193.5 159.432 198.2 166.332 198.2ZM233.536 159.6C243.636 159.6 252.236 166.8 252.236 180.3V211H237.236V182.5C237.236 176.3 233.336 173.4 228.536 173.4C223.036 173.4 219.236 176.6 219.236 183.7V211H204.236V161H219.236V165.7C221.936 162 226.936 159.6 233.536 159.6ZM286.537 212.4C271.337 212.4 260.037 200.9 260.037 186C260.037 171.1 271.337 159.6 286.537 159.6C296.237 159.6 304.837 164.7 309.137 172.4L296.037 180C294.337 176.5 290.737 174.4 286.337 174.4C279.837 174.4 275.037 179.1 275.037 186C275.037 192.9 279.837 197.6 286.337 197.6C290.737 197.6 294.437 195.5 296.037 192L309.137 199.5C304.837 207.3 296.337 212.4 286.537 212.4ZM322.674 156.6C317.774 156.6 313.674 152.5 313.674 147.6C313.674 142.7 317.774 138.6 322.674 138.6C327.574 138.6 331.674 142.7 331.674 147.6C331.674 152.5 327.574 156.6 322.674 156.6ZM315.174 211V161H330.174V211H315.174ZM377.45 161H392.45V211H377.45V206.3C374.15 210.1 369.25 212.4 362.55 212.4C349.45 212.4 338.65 200.9 338.65 186C338.65 171.1 349.45 159.6 362.55 159.6C369.25 159.6 374.15 161.9 377.45 165.7V161ZM365.55 198.2C372.45 198.2 377.45 193.5 377.45 186C377.45 178.5 372.45 173.8 365.55 173.8C358.65 173.8 353.65 178.5 353.65 186C353.65 193.5 358.65 198.2 365.55 198.2ZM403.455 211V138H418.455V211H403.455ZM454.932 141H470.932V211H454.932V141ZM511.759 159.6C521.859 159.6 530.459 166.8 530.459 180.3V211H515.459V182.5C515.459 176.3 511.559 173.4 506.759 173.4C501.259 173.4 497.459 176.6 497.459 183.7V211H482.459V161H497.459V165.7C500.159 162 505.159 159.6 511.759 159.6ZM568.26 154C562.66 153.5 558.96 155.2 558.96 161H568.26V175.4H558.96V211H543.96V175.4H537.26V161H543.96C543.96 147 551.66 138.6 568.26 139.6V154ZM588.768 169.9C590.768 163.2 597.468 160 603.768 160V177C597.568 176 588.768 178.5 588.768 188.4V211H573.768V161H588.768V169.9ZM645.614 161H660.614V211H645.614V206.3C642.314 210.1 637.414 212.4 630.714 212.4C617.614 212.4 606.814 200.9 606.814 186C606.814 171.1 617.614 159.6 630.714 159.6C637.414 159.6 642.314 161.9 645.614 165.7V161ZM633.714 198.2C640.614 198.2 645.614 193.5 645.614 186C645.614 178.5 640.614 173.8 633.714 173.8C626.814 173.8 621.814 178.5 621.814 186C621.814 193.5 626.814 198.2 633.714 198.2ZM685.331 175.6C685.331 181.3 709.931 177.5 709.931 196C709.931 207.5 699.931 212.4 689.131 212.4C679.131 212.4 671.531 208.6 667.631 200.5L680.631 193.1C681.931 196.9 684.731 199 689.131 199C692.731 199 694.531 197.9 694.531 195.9C694.531 190.4 669.931 193.3 669.931 176C669.931 165.1 679.131 159.6 689.531 159.6C697.631 159.6 704.831 163.2 709.031 170.3L696.231 177.2C694.831 174.6 692.831 172.8 689.531 172.8C686.931 172.8 685.331 173.8 685.331 175.6ZM745.255 175.4H734.955V193.1C734.955 197.4 738.655 197.8 745.255 197.4V211C725.655 213 719.955 207.1 719.955 193.1V175.4H711.955V161H719.955V151.5L734.955 147V161H745.255V175.4ZM769.725 169.9C771.725 163.2 778.425 160 784.725 160V177C778.525 176 769.725 178.5 769.725 188.4V211H754.725V161H769.725V169.9ZM824.036 161H839.036V211H824.036V206.3C821.336 210 816.336 212.4 809.736 212.4C799.636 212.4 791.036 205.2 791.036 191.7V161H806.036V189.5C806.036 195.7 809.936 198.6 814.736 198.6C820.236 198.6 824.036 195.4 824.036 188.3V161ZM874.037 212.4C858.837 212.4 847.537 200.9 847.537 186C847.537 171.1 858.837 159.6 874.037 159.6C883.737 159.6 892.337 164.7 896.637 172.4L883.537 180C881.837 176.5 878.237 174.4 873.837 174.4C867.337 174.4 862.537 179.1 862.537 186C862.537 192.9 867.337 197.6 873.837 197.6C878.237 197.6 881.937 195.5 883.537 192L896.637 199.5C892.337 207.3 883.837 212.4 874.037 212.4ZM931.974 175.4H921.674V193.1C921.674 197.4 925.374 197.8 931.974 197.4V211C912.374 213 906.674 207.1 906.674 193.1V175.4H898.674V161H906.674V151.5L921.674 147V161H931.974V175.4ZM973.743 161H988.743V211H973.743V206.3C971.043 210 966.043 212.4 959.443 212.4C949.343 212.4 940.743 205.2 940.743 191.7V161H955.743V189.5C955.743 195.7 959.643 198.6 964.443 198.6C969.943 198.6 973.743 195.4 973.743 188.3V161ZM1014.74 169.9C1016.74 163.2 1023.44 160 1029.74 160V177C1023.54 176 1014.74 178.5 1014.74 188.4V211H999.744V161H1014.74V169.9ZM1048.69 192C1050.59 197.2 1055.19 199 1060.69 199C1064.79 199 1068.29 197.4 1070.29 195.2L1082.29 202.1C1077.39 208.9 1069.99 212.4 1060.49 212.4C1043.39 212.4 1032.79 200.9 1032.79 186C1032.79 171.1 1043.59 159.6 1059.39 159.6C1073.99 159.6 1084.79 170.9 1084.79 186C1084.79 188.1 1084.59 190.1 1084.19 192H1048.69ZM1048.39 180.8H1069.89C1068.29 175 1063.79 172.9 1059.29 172.9C1053.59 172.9 1049.79 175.7 1048.39 180.8Z"
        fill="#582889" />
    <defs>
        <linearGradient id="paint0_linear_0_204" x1="544" y1="0" x2="544" y2="110.125"
            gradientUnits="userSpaceOnUse">
            <stop stop-color="#F25C2D" />
            <stop offset="0.54132" stop-color="#6D2F7C" />
            <stop offset="0.999089" stop-color="#582889" />
        </linearGradient>
    </defs>
</svg>
    