<svg width="120" height="120" viewBox="0 0 120 120" fill="none" xmlns="http://www.w3.org/2000/svg">
    <path
        d="M63.2352 95.4V96.4H64.2352H111.835H112.835V95.4V80V79H111.835H90.7348L100.642 69.0071C100.643 69.0065 100.643 69.006 100.644 69.0054C107.126 62.5232 111.835 55.083 111.835 46.3C111.835 31.5254 100.057 23 87.1352 23C77.0886 23 67.2955 28.0913 62.6174 38.9029L62.2657 39.7157L63.0301 40.1631L76.5301 48.0631L77.5053 48.6338L77.9532 47.5964C79.7504 43.4345 82.9574 40.6 87.3352 40.6C89.4675 40.6 91.0695 41.2757 92.1371 42.3537C93.207 43.434 93.8352 45.014 93.8352 47C93.8352 48.8028 93.1753 50.671 91.9698 52.6404C90.7639 54.6104 89.0478 56.6238 87.0196 58.7015L87.0149 58.7063L63.5149 83.1063L63.2352 83.3968V83.8V95.4Z"
        stroke="#642D83" stroke-width="2" />
    <path
        d="M3 60.4C3 71.3463 5.6337 80.6811 10.6662 87.305C15.7222 93.9596 23.1448 97.8 32.5 97.8C41.8552 97.8 49.2778 93.9596 54.3338 87.305C59.3663 80.6811 62 71.3463 62 60.4C62 49.4537 59.3663 40.1189 54.3338 33.495C49.2778 26.8404 41.8552 23 32.5 23C23.1448 23 15.7222 26.8404 10.6662 33.495C5.6337 40.1189 3 49.4537 3 60.4ZM44 60.4C44 67.0797 42.9803 72.0678 41.039 75.3539C39.1432 78.563 36.345 80.2 32.5 80.2C28.655 80.2 25.8568 78.563 23.961 75.3539C22.0197 72.0678 21 67.0797 21 60.4C21 53.7203 22.0197 48.7322 23.961 45.4461C25.8568 42.237 28.655 40.6 32.5 40.6C36.345 40.6 39.1432 42.237 41.039 45.4461C42.9803 48.7322 44 53.7203 44 60.4Z"
        stroke="#642D83" stroke-width="2" />
</svg>
    