<svg width="306" height="67" viewBox="0 0 306 67" fill="none" xmlns="http://www.w3.org/2000/svg">
    <path
        d="M75.6023 26.3722C69.9743 26.3722 65.4103 21.9482 65.4103 16.1802C65.4103 10.4122 69.9743 5.98822 75.6023 5.98822C81.2303 5.98822 85.7943 10.4122 85.7943 16.1802C85.7943 21.9482 81.2303 26.3722 75.6023 26.3722ZM75.6023 22.0042C78.7943 22.0042 81.3143 19.6802 81.3143 16.1802C81.3143 12.6802 78.7943 10.3562 75.6023 10.3562C72.4103 10.3562 69.8903 12.6802 69.8903 16.1802C69.8903 19.6802 72.4103 22.0042 75.6023 22.0042ZM92.3767 14.4722C92.9367 12.5962 94.8127 11.7002 96.5767 11.7002V16.4602C94.8407 16.1802 92.3767 16.8802 92.3767 19.6522V25.9802H88.1767V11.9802H92.3767V14.4722ZM108.294 6.38022H112.494V25.9802H108.294V24.6642C107.37 25.7282 105.998 26.3722 104.122 26.3722C100.454 26.3722 97.4298 23.1522 97.4298 18.9802C97.4298 14.8082 100.454 11.5882 104.122 11.5882C105.998 11.5882 107.37 12.2322 108.294 13.2962V6.38022ZM104.962 22.3962C106.894 22.3962 108.294 21.0802 108.294 18.9802C108.294 16.8802 106.894 15.5642 104.962 15.5642C103.03 15.5642 101.63 16.8802 101.63 18.9802C101.63 21.0802 103.03 22.3962 104.962 22.3962ZM117.675 10.7482C116.303 10.7482 115.155 9.60022 115.155 8.22822C115.155 6.85622 116.303 5.70822 117.675 5.70822C119.047 5.70822 120.195 6.85622 120.195 8.22822C120.195 9.60022 119.047 10.7482 117.675 10.7482ZM115.575 25.9802V11.9802H119.775V25.9802H115.575ZM131.053 11.5882C133.881 11.5882 136.289 13.6042 136.289 17.3842V25.9802H132.089V18.0002C132.089 16.2642 130.997 15.4522 129.653 15.4522C128.113 15.4522 127.049 16.3482 127.049 18.3362V25.9802H122.849V11.9802H127.049V13.2962C127.805 12.2602 129.205 11.5882 131.053 11.5882ZM149.337 11.9802H153.537V25.9802H149.337V24.6642C148.413 25.7282 147.041 26.3722 145.165 26.3722C141.497 26.3722 138.473 23.1522 138.473 18.9802C138.473 14.8082 141.497 11.5882 145.165 11.5882C147.041 11.5882 148.413 12.2322 149.337 13.2962V11.9802ZM146.005 22.3962C147.937 22.3962 149.337 21.0802 149.337 18.9802C149.337 16.8802 147.937 15.5642 146.005 15.5642C144.073 15.5642 142.673 16.8802 142.673 18.9802C142.673 21.0802 144.073 22.3962 146.005 22.3962ZM156.618 25.9802V5.54022H160.818V25.9802H156.618ZM180.384 26.3722C174.756 26.3722 170.192 21.9482 170.192 16.1802C170.192 10.4122 174.756 5.98822 180.384 5.98822C186.012 5.98822 190.576 10.4122 190.576 16.1802C190.576 21.9482 186.012 26.3722 180.384 26.3722ZM180.384 22.0042C183.576 22.0042 186.096 19.6802 186.096 16.1802C186.096 12.6802 183.576 10.3562 180.384 10.3562C177.192 10.3562 174.672 12.6802 174.672 16.1802C174.672 19.6802 177.192 22.0042 180.384 22.0042ZM201.33 11.5882C204.998 11.5882 208.022 14.8082 208.022 18.9802C208.022 23.1522 204.998 26.3722 201.33 26.3722C199.454 26.3722 198.082 25.7282 197.158 24.6642V31.5802H192.958V11.9802H197.158V13.2962C198.082 12.2322 199.454 11.5882 201.33 11.5882ZM200.49 22.3962C202.422 22.3962 203.822 21.0802 203.822 18.9802C203.822 16.8802 202.422 15.5642 200.49 15.5642C198.558 15.5642 197.158 16.8802 197.158 18.9802C197.158 21.0802 198.558 22.3962 200.49 22.3962ZM214.155 20.6602C214.687 22.1162 215.975 22.6202 217.515 22.6202C218.663 22.6202 219.643 22.1722 220.203 21.5562L223.563 23.4882C222.191 25.3922 220.119 26.3722 217.459 26.3722C212.671 26.3722 209.703 23.1522 209.703 18.9802C209.703 14.8082 212.727 11.5882 217.151 11.5882C221.239 11.5882 224.263 14.7522 224.263 18.9802C224.263 19.5682 224.207 20.1282 224.095 20.6602H214.155ZM214.071 17.5242H220.091C219.643 15.9002 218.383 15.3122 217.123 15.3122C215.527 15.3122 214.463 16.0962 214.071 17.5242ZM234.849 11.5882C237.677 11.5882 240.085 13.6042 240.085 17.3842V25.9802H235.885V18.0002C235.885 16.2642 234.793 15.4522 233.449 15.4522C231.909 15.4522 230.845 16.3482 230.845 18.3362V25.9802H226.645V11.9802H230.845V13.2962C231.601 12.2602 233.001 11.5882 234.849 11.5882Z"
        fill="url(#paint0_linear_74_478)" />
    <path
        d="M14.3163 45.0453H6.89633V48.8253H14.1763V53.1373H6.89633V60.3333H2.41633V40.7333H14.3163V45.0453ZM18.9232 45.1013C17.5512 45.1013 16.4032 43.9533 16.4032 42.5813C16.4032 41.2093 17.5512 40.0613 18.9232 40.0613C20.2952 40.0613 21.4432 41.2093 21.4432 42.5813C21.4432 43.9533 20.2952 45.1013 18.9232 45.1013ZM16.8232 60.3333V46.3333H21.0232V60.3333H16.8232ZM32.3006 45.9413C35.1286 45.9413 37.5366 47.9573 37.5366 51.7373V60.3333H33.3366V52.3533C33.3366 50.6173 32.2446 49.8053 30.9006 49.8053C29.3606 49.8053 28.2966 50.7013 28.2966 52.6893V60.3333H24.0966V46.3333H28.2966V47.6493C29.0526 46.6133 30.4526 45.9413 32.3006 45.9413ZM50.5849 46.3333H54.7849V60.3333H50.5849V59.0173C49.6609 60.0813 48.2889 60.7253 46.4129 60.7253C42.7449 60.7253 39.7209 57.5053 39.7209 53.3333C39.7209 49.1613 42.7449 45.9413 46.4129 45.9413C48.2889 45.9413 49.6609 46.5853 50.5849 47.6493V46.3333ZM47.2529 56.7493C49.1849 56.7493 50.5849 55.4333 50.5849 53.3333C50.5849 51.2333 49.1849 49.9173 47.2529 49.9173C45.3209 49.9173 43.9209 51.2333 43.9209 53.3333C43.9209 55.4333 45.3209 56.7493 47.2529 56.7493ZM66.0702 45.9413C68.8982 45.9413 71.3062 47.9573 71.3062 51.7373V60.3333H67.1062V52.3533C67.1062 50.6173 66.0142 49.8053 64.6702 49.8053C63.1302 49.8053 62.0662 50.7013 62.0662 52.6893V60.3333H57.8662V46.3333H62.0662V47.6493C62.8222 46.6133 64.2222 45.9413 66.0702 45.9413ZM80.9104 60.7253C76.6544 60.7253 73.4904 57.5053 73.4904 53.3333C73.4904 49.1613 76.6544 45.9413 80.9104 45.9413C83.6264 45.9413 86.0344 47.3693 87.2384 49.5253L83.5704 51.6533C83.0944 50.6733 82.0864 50.0853 80.8544 50.0853C79.0344 50.0853 77.6904 51.4013 77.6904 53.3333C77.6904 55.2653 79.0344 56.5813 80.8544 56.5813C82.0864 56.5813 83.1224 55.9933 83.5704 55.0133L87.2384 57.1133C86.0344 59.2973 83.6544 60.7253 80.9104 60.7253ZM91.0287 45.1013C89.6567 45.1013 88.5087 43.9533 88.5087 42.5813C88.5087 41.2093 89.6567 40.0613 91.0287 40.0613C92.4007 40.0613 93.5487 41.2093 93.5487 42.5813C93.5487 43.9533 92.4007 45.1013 91.0287 45.1013ZM88.9287 60.3333V46.3333H93.1287V60.3333H88.9287ZM106.366 46.3333H110.566V60.3333H106.366V59.0173C105.442 60.0813 104.07 60.7253 102.194 60.7253C98.5261 60.7253 95.5021 57.5053 95.5021 53.3333C95.5021 49.1613 98.5261 45.9413 102.194 45.9413C104.07 45.9413 105.442 46.5853 106.366 47.6493V46.3333ZM103.034 56.7493C104.966 56.7493 106.366 55.4333 106.366 53.3333C106.366 51.2333 104.966 49.9173 103.034 49.9173C101.102 49.9173 99.7021 51.2333 99.7021 53.3333C99.7021 55.4333 101.102 56.7493 103.034 56.7493ZM113.647 60.3333V39.8933H117.847V60.3333H113.647ZM128.061 40.7333H132.541V60.3333H128.061V40.7333ZM143.973 45.9413C146.801 45.9413 149.209 47.9573 149.209 51.7373V60.3333H145.009V52.3533C145.009 50.6173 143.917 49.8053 142.573 49.8053C141.033 49.8053 139.969 50.7013 139.969 52.6893V60.3333H135.769V46.3333H139.969V47.6493C140.725 46.6133 142.125 45.9413 143.973 45.9413ZM159.793 44.3733C158.225 44.2333 157.189 44.7093 157.189 46.3333H159.793V50.3653H157.189V60.3333H152.989V50.3653H151.113V46.3333H152.989C152.989 42.4133 155.145 40.0613 159.793 40.3413V44.3733ZM165.535 48.8253C166.095 46.9493 167.971 46.0533 169.735 46.0533V50.8133C167.999 50.5333 165.535 51.2333 165.535 54.0053V60.3333H161.335V46.3333H165.535V48.8253ZM181.452 46.3333H185.652V60.3333H181.452V59.0173C180.528 60.0813 179.156 60.7253 177.28 60.7253C173.612 60.7253 170.588 57.5053 170.588 53.3333C170.588 49.1613 173.612 45.9413 177.28 45.9413C179.156 45.9413 180.528 46.5853 181.452 47.6493V46.3333ZM178.12 56.7493C180.052 56.7493 181.452 55.4333 181.452 53.3333C181.452 51.2333 180.052 49.9173 178.12 49.9173C176.188 49.9173 174.788 51.2333 174.788 53.3333C174.788 55.4333 176.188 56.7493 178.12 56.7493ZM192.573 50.4213C192.573 52.0173 199.461 50.9533 199.461 56.1333C199.461 59.3533 196.661 60.7253 193.637 60.7253C190.837 60.7253 188.709 59.6613 187.617 57.3933L191.257 55.3213C191.621 56.3853 192.405 56.9733 193.637 56.9733C194.645 56.9733 195.149 56.6653 195.149 56.1053C195.149 54.5653 188.261 55.3773 188.261 50.5333C188.261 47.4813 190.837 45.9413 193.749 45.9413C196.017 45.9413 198.033 46.9493 199.209 48.9373L195.625 50.8693C195.233 50.1413 194.673 49.6373 193.749 49.6373C193.021 49.6373 192.573 49.9173 192.573 50.4213ZM209.351 50.3653H206.467V55.3213C206.467 56.5253 207.503 56.6373 209.351 56.5253V60.3333C203.863 60.8933 202.267 59.2413 202.267 55.3213V50.3653H200.027V46.3333H202.267V43.6733L206.467 42.4133V46.3333H209.351V50.3653ZM216.203 48.8253C216.763 46.9493 218.639 46.0533 220.403 46.0533V50.8133C218.667 50.5333 216.203 51.2333 216.203 54.0053V60.3333H212.003V46.3333H216.203V48.8253ZM231.41 46.3333H235.61V60.3333H231.41V59.0173C230.654 60.0533 229.254 60.7253 227.406 60.7253C224.578 60.7253 222.17 58.7093 222.17 54.9293V46.3333H226.37V54.3133C226.37 56.0493 227.462 56.8613 228.806 56.8613C230.346 56.8613 231.41 55.9653 231.41 53.9773V46.3333ZM245.41 60.7253C241.154 60.7253 237.99 57.5053 237.99 53.3333C237.99 49.1613 241.154 45.9413 245.41 45.9413C248.126 45.9413 250.534 47.3693 251.738 49.5253L248.07 51.6533C247.594 50.6733 246.586 50.0853 245.354 50.0853C243.534 50.0853 242.19 51.4013 242.19 53.3333C242.19 55.2653 243.534 56.5813 245.354 56.5813C246.586 56.5813 247.622 55.9933 248.07 55.0133L251.738 57.1133C250.534 59.2973 248.154 60.7253 245.41 60.7253ZM261.633 50.3653H258.749V55.3213C258.749 56.5253 259.785 56.6373 261.633 56.5253V60.3333C256.145 60.8933 254.549 59.2413 254.549 55.3213V50.3653H252.309V46.3333H254.549V43.6733L258.749 42.4133V46.3333H261.633V50.3653ZM273.328 46.3333H277.528V60.3333H273.328V59.0173C272.572 60.0533 271.172 60.7253 269.324 60.7253C266.496 60.7253 264.088 58.7093 264.088 54.9293V46.3333H268.288V54.3133C268.288 56.0493 269.38 56.8613 270.724 56.8613C272.264 56.8613 273.328 55.9653 273.328 53.9773V46.3333ZM284.808 48.8253C285.368 46.9493 287.244 46.0533 289.008 46.0533V50.8133C287.272 50.5333 284.808 51.2333 284.808 54.0053V60.3333H280.608V46.3333H284.808V48.8253ZM294.313 55.0133C294.845 56.4693 296.133 56.9733 297.673 56.9733C298.821 56.9733 299.801 56.5253 300.361 55.9093L303.721 57.8413C302.349 59.7453 300.277 60.7253 297.617 60.7253C292.829 60.7253 289.861 57.5053 289.861 53.3333C289.861 49.1613 292.885 45.9413 297.309 45.9413C301.397 45.9413 304.421 49.1053 304.421 53.3333C304.421 53.9213 304.365 54.4813 304.253 55.0133H294.313ZM294.229 51.8773H300.249C299.801 50.2533 298.541 49.6653 297.281 49.6653C295.685 49.6653 294.621 50.4493 294.229 51.8773Z"
        fill="#582889" />
    <defs>
        <linearGradient id="paint0_linear_74_478" x1="153" y1="0.980225" x2="153" y2="32.0155"
            gradientUnits="userSpaceOnUse">
            <stop stop-color="#F25C2D" />
            <stop offset="0.54132" stop-color="#6D2F7C" />
            <stop offset="0.999089" stop-color="#582889" />
        </linearGradient>
    </defs>
</svg>
    