<svg width="132" height="19" viewBox="0 0 132 19" fill="none" xmlns="http://www.w3.org/2000/svg">
    <path
        d="M8.74116 18.6693C3.91716 18.6693 0.00515628 14.8773 0.00515628 9.93325C0.00515628 4.98925 3.91716 1.19725 8.74116 1.19725C13.5652 1.19725 17.4772 4.98925 17.4772 9.93325C17.4772 14.8773 13.5652 18.6693 8.74116 18.6693ZM8.74116 14.9253C11.4772 14.9253 13.6372 12.9333 13.6372 9.93325C13.6372 6.93325 11.4772 4.94125 8.74116 4.94125C6.00516 4.94125 3.84516 6.93325 3.84516 9.93325C3.84516 12.9333 6.00516 14.9253 8.74116 14.9253ZM27.6552 18.6693C22.8312 18.6693 18.9192 14.8773 18.9192 9.93325C18.9192 4.98925 22.8312 1.19725 27.6552 1.19725C32.4792 1.19725 36.3912 4.98925 36.3912 9.93325C36.3912 14.8773 32.4792 18.6693 27.6552 18.6693ZM27.6552 14.9253C30.3912 14.9253 32.5512 12.9333 32.5512 9.93325C32.5512 6.93325 30.3912 4.94125 27.6552 4.94125C24.9192 4.94125 22.7592 6.93325 22.7592 9.93325C22.7592 12.9333 24.9192 14.9253 27.6552 14.9253ZM48.7533 5.22925H42.3933V8.46925H48.6333V12.1653H42.3933V18.3333H38.5533V1.53325H48.7533V5.22925ZM51.022 1.53325H54.862V18.3333H51.022V1.53325ZM62.1886 1.53325L60.2686 8.61325H57.3886L58.3486 1.53325H62.1886ZM66.0757 9.83725C66.0757 11.2053 71.9797 10.2933 71.9797 14.7333C71.9797 17.4933 69.5797 18.6693 66.9877 18.6693C64.5877 18.6693 62.7637 17.7573 61.8277 15.8133L64.9477 14.0373C65.2597 14.9493 65.9317 15.4533 66.9877 15.4533C67.8517 15.4533 68.2837 15.1893 68.2837 14.7093C68.2837 13.3893 62.3797 14.0853 62.3797 9.93325C62.3797 7.31725 64.5877 5.99725 67.0837 5.99725C69.0277 5.99725 70.7557 6.86125 71.7637 8.56525L68.6917 10.2213C68.3557 9.59725 67.8757 9.16525 67.0837 9.16525C66.4597 9.16525 66.0757 9.40525 66.0757 9.83725ZM96.6462 8.97325V10.4133C96.6462 15.5493 93.0702 18.6693 88.3662 18.6693C83.0862 18.6693 79.2942 14.7813 79.2942 9.95725C79.2942 5.08525 83.1582 1.19725 88.1022 1.19725C91.3182 1.19725 94.0302 2.78125 95.4462 5.03725L92.1822 6.90925C91.4862 5.80525 89.9742 4.94125 88.0782 4.94125C85.2462 4.94125 83.1342 7.02925 83.1342 9.98125C83.1342 12.8373 85.1502 14.9253 88.4142 14.9253C90.6462 14.9253 92.1102 13.9413 92.7102 12.3333H88.2222V8.97325H96.6462ZM104.451 18.6693C100.923 18.6693 98.0911 15.9093 98.0911 12.3333C98.0911 8.75725 100.923 5.99725 104.451 5.99725C107.979 5.99725 110.811 8.75725 110.811 12.3333C110.811 15.9093 107.979 18.6693 104.451 18.6693ZM104.451 15.1653C106.011 15.1653 107.211 14.0373 107.211 12.3333C107.211 10.6293 106.011 9.50125 104.451 9.50125C102.891 9.50125 101.691 10.6293 101.691 12.3333C101.691 14.0373 102.891 15.1653 104.451 15.1653ZM121.559 6.33325H125.159V18.3333H121.559V17.2053C120.767 18.1173 119.591 18.6693 117.983 18.6693C114.839 18.6693 112.247 15.9093 112.247 12.3333C112.247 8.75725 114.839 5.99725 117.983 5.99725C119.591 5.99725 120.767 6.54925 121.559 7.46125V6.33325ZM118.703 15.2613C120.359 15.2613 121.559 14.1333 121.559 12.3333C121.559 10.5333 120.359 9.40525 118.703 9.40525C117.047 9.40525 115.847 10.5333 115.847 12.3333C115.847 14.1333 117.047 15.2613 118.703 15.2613ZM127.8 18.3333V0.813251H131.4V18.3333H127.8Z"
        fill="#582889" />
</svg>
    