<svg width="197" height="18" viewBox="0 0 197 18" fill="none" xmlns="http://www.w3.org/2000/svg">
    <path
        d="M17.7322 7.97325V9.41325C17.7322 14.5493 14.1562 17.6693 9.45216 17.6693C4.17216 17.6693 0.380156 13.7813 0.380156 8.95725C0.380156 4.08525 4.24416 0.197251 9.18816 0.197251C12.4042 0.197251 15.1162 1.78125 16.5322 4.03725L13.2682 5.90925C12.5722 4.80525 11.0602 3.94125 9.16416 3.94125C6.33216 3.94125 4.22016 6.02925 4.22016 8.98125C4.22016 11.8373 6.23616 13.9253 9.50016 13.9253C11.7322 13.9253 13.1962 12.9413 13.7962 11.3333H9.30816V7.97325H17.7322ZM22.993 12.7733C23.449 14.0213 24.553 14.4533 25.873 14.4533C26.857 14.4533 27.697 14.0693 28.177 13.5413L31.057 15.1973C29.881 16.8293 28.105 17.6693 25.825 17.6693C21.721 17.6693 19.177 14.9093 19.177 11.3333C19.177 7.75725 21.769 4.99725 25.561 4.99725C29.065 4.99725 31.657 7.70925 31.657 11.3333C31.657 11.8373 31.609 12.3173 31.513 12.7733H22.993ZM22.921 10.0853H28.081C27.697 8.69325 26.617 8.18925 25.537 8.18925C24.169 8.18925 23.257 8.86125 22.921 10.0853ZM40.3793 8.78925H37.9073V13.0373C37.9073 14.0693 38.7953 14.1653 40.3793 14.0693V17.3333C35.6753 17.8133 34.3073 16.3973 34.3073 13.0373V8.78925H32.3873V5.33325H34.3073V3.05325L37.9073 1.97325V5.33325H40.3793V8.78925ZM55.684 8.78925H53.212V13.0373C53.212 14.0693 54.1 14.1653 55.684 14.0693V17.3333C50.98 17.8133 49.612 16.3973 49.612 13.0373V8.78925H47.692V5.33325H49.612V3.05325L53.212 1.97325V5.33325H55.684V8.78925ZM63.248 17.6693C59.72 17.6693 56.888 14.9093 56.888 11.3333C56.888 7.75725 59.72 4.99725 63.248 4.99725C66.776 4.99725 69.608 7.75725 69.608 11.3333C69.608 14.9093 66.776 17.6693 63.248 17.6693ZM63.248 14.1653C64.808 14.1653 66.008 13.0373 66.008 11.3333C66.008 9.62925 64.808 8.50125 63.248 8.50125C61.688 8.50125 60.488 9.62925 60.488 11.3333C60.488 13.0373 61.688 14.1653 63.248 14.1653ZM89.1642 17.3333H85.0842L81.2442 12.0293V17.3333H77.6442V0.533251H81.2442V10.5893L84.8442 5.33325H89.0442L84.6762 11.3333L89.1642 17.3333ZM97.52 4.99725C99.944 4.99725 102.008 6.72525 102.008 9.96525V17.3333H98.408V10.4933C98.408 9.00525 97.472 8.30925 96.32 8.30925C95 8.30925 94.088 9.07725 94.088 10.7813V17.3333H90.488V5.33325H94.088V6.46125C94.736 5.57325 95.936 4.99725 97.52 4.99725ZM110.24 17.6693C106.712 17.6693 103.88 14.9093 103.88 11.3333C103.88 7.75725 106.712 4.99725 110.24 4.99725C113.768 4.99725 116.6 7.75725 116.6 11.3333C116.6 14.9093 113.768 17.6693 110.24 17.6693ZM110.24 14.1653C111.8 14.1653 113 13.0373 113 11.3333C113 9.62925 111.8 8.50125 110.24 8.50125C108.68 8.50125 107.48 9.62925 107.48 11.3333C107.48 13.0373 108.68 14.1653 110.24 14.1653ZM131.368 5.33325H135.208L131.368 17.3333H128.008L126.088 10.9253L124.168 17.3333H120.808L116.968 5.33325H120.808L122.536 11.7653L124.408 5.33325H127.768L129.64 11.7653L131.368 5.33325ZM150.772 17.6693C145.948 17.6693 142.036 13.8773 142.036 8.93325C142.036 3.98925 145.948 0.197251 150.772 0.197251C155.596 0.197251 159.508 3.98925 159.508 8.93325C159.508 13.8773 155.596 17.6693 150.772 17.6693ZM150.772 13.9253C153.508 13.9253 155.668 11.9333 155.668 8.93325C155.668 5.93325 153.508 3.94125 150.772 3.94125C148.036 3.94125 145.876 5.93325 145.876 8.93325C145.876 11.9333 148.036 13.9253 150.772 13.9253ZM169.686 17.6693C164.862 17.6693 160.95 13.8773 160.95 8.93325C160.95 3.98925 164.862 0.197251 169.686 0.197251C174.51 0.197251 178.422 3.98925 178.422 8.93325C178.422 13.8773 174.51 17.6693 169.686 17.6693ZM169.686 13.9253C172.422 13.9253 174.582 11.9333 174.582 8.93325C174.582 5.93325 172.422 3.94125 169.686 3.94125C166.95 3.94125 164.79 5.93325 164.79 8.93325C164.79 11.9333 166.95 13.9253 169.686 13.9253ZM190.785 4.22925H184.425V7.46925H190.665V11.1653H184.425V17.3333H180.585V0.533251H190.785V4.22925ZM193.053 0.533251H196.893V17.3333H193.053V0.533251Z"
        fill="#582889" />
</svg>
    